<?xml version="1.0" encoding="utf-8"?>
<!-- Generator: Adobe Illustrator 22.0.1, SVG Export Plug-In . SVG Version: 6.00 Build 0)  -->
<svg version="1.1" id="Слой_1" xmlns="http://www.w3.org/2000/svg" xmlns:xlink="http://www.w3.org/1999/xlink" x="0px" y="0px"
	 viewBox="0 0 23.32 21.88" style="enable-background:new 0 0 23.32 21.88;" xml:space="preserve">
<g>
	<path style="fill:none;stroke:#000000;stroke-linecap:round;stroke-linejoin:round;stroke-miterlimit:10;" d="M5.43,16.94L6.4,12.4
		l1.18,0.19l0.54,2.28"/>
	<path style="fill:none;stroke:#000000;stroke-linecap:round;stroke-linejoin:round;stroke-miterlimit:10;" d="M9.95,13.86
		L9.5,11.93c-0.16-0.68-0.71-1.2-1.39-1.29l-1.27-0.21l0.47-2.21C7.36,8.29,7.41,8.33,7.46,8.4C7.78,8.87,8.3,9.2,8.89,9.27
		l1.76,0.24c0.19,0.02,0.38-0.02,0.54-0.09c0.24-0.14,0.4-0.35,0.45-0.66c0.07-0.47-0.26-0.92-0.75-0.99L9.12,7.53
		C9.03,7.51,8.94,7.46,8.89,7.39c-1.5-2.14-1.81-2.26-2.26-2.28L5.2,5.04C4.92,5.02,4.66,5.02,2.52,6.31
		C2.07,6.57,1.7,6.97,1.46,7.44L0.59,9.27c-0.21,0.42-0.05,0.94,0.38,1.18c0.42,0.21,0.96,0.05,1.18-0.38l0.92-1.79
		c0.09-0.19,0.24-0.33,0.4-0.45c0.07-0.05,0.12-0.07,0.19-0.12l-0.52,2.33c-0.09,0.45,0,0.94,0.26,1.32
		c0.24,0.35,0.63,0.61,1.06,0.71l-1.2,5.48"/>
	
		<ellipse style="fill:none;stroke:#000000;stroke-linecap:round;stroke-linejoin:round;stroke-miterlimit:10;" cx="6.24" cy="2.75" rx="1.93" ry="1.93"/>
	<path style="fill:none;stroke:#000000;stroke-linecap:round;stroke-linejoin:round;stroke-miterlimit:10;" d="M16.48,1.28h-3.17
		c-0.28,0-0.49,0.21-0.49,0.49v2.59c0,0.28,0.21,0.49,0.49,0.49h3.2"/>
	<path style="fill:none;stroke:#000000;stroke-linecap:round;stroke-linejoin:round;stroke-miterlimit:10;" d="M16.5,9.58
		c-0.07,0.05-0.12,0.09-0.16,0.16l-2.89,3.97c-0.12,0.14-0.26,0.26-0.45,0.31l-3.57,1.1c-0.16,0.05-0.31,0.14-0.42,0.28l-1.48,1.86
		c-0.12,0.14-0.26,0.24-0.42,0.28l-3.88,1.08c-0.24,0.07-0.42,0.24-0.54,0.45l-0.52,1.08c-0.28,0.56,0.14,1.22,0.75,1.22h19.06
		c0.56-0.02,0.99-0.59,0.8-1.13l-1.79-5.48c-0.02-0.07-0.05-0.14-0.09-0.21l-3.17-4.79c-0.05-0.09-0.62-0.14-0.71-0.21V0.5"/>
</g>
<line style="fill:none;stroke:#000000;stroke-linecap:round;stroke-linejoin:round;stroke-miterlimit:10;" x1="16.5" y1="9.58" x2="17.51" y2="9.58"/>
</svg>
