<?xml version="1.0" encoding="utf-8"?>
<!-- Generator: Adobe Illustrator 22.0.1, SVG Export Plug-In . SVG Version: 6.00 Build 0)  -->
<svg version="1.1" id="Слой_1" xmlns="http://www.w3.org/2000/svg" xmlns:xlink="http://www.w3.org/1999/xlink" x="0px" y="0px"
	 viewBox="0 0 30 30" style="enable-background:new 0 0 30 30;" xml:space="preserve">
<g>
	<circle cx="15" cy="15" r="15"/>
</g>
<g>
	<path style="fill:#FFFFFF;" d="M21.6,15c0,1.3,0,2.2,0,2.7s-0.1,1-0.2,1.5c-0.2,0.5-0.4,0.9-0.8,1.3c-0.4,0.4-0.8,0.6-1.3,0.8
		c-0.4,0.1-0.9,0.2-1.5,0.2s-1.5,0-2.7,0c-1.3,0-2.2,0-2.7,0s-1-0.1-1.5-0.3c-0.5-0.2-0.9-0.4-1.3-0.8c-0.4-0.4-0.6-0.8-0.8-1.3
		c-0.1-0.4-0.2-0.9-0.2-1.5s0-1.5,0-2.7c0-1.3,0-2.2,0-2.7s0.1-1,0.2-1.5c0.2-0.5,0.4-0.9,0.8-1.3c0.4-0.4,0.8-0.6,1.3-0.8
		c0.4-0.1,0.9-0.2,1.5-0.2s1.5,0,2.7,0c1.3,0,2.2,0,2.7,0s1,0.1,1.5,0.2c0.5,0.2,0.9,0.4,1.3,0.8c0.4,0.4,0.6,0.8,0.8,1.3
		c0.1,0.4,0.2,0.9,0.3,1.5C21.6,12.8,21.6,13.7,21.6,15z M20.4,17.3c0-0.4,0-1,0-1.8v-0.9c0-0.8,0-1.4,0-1.8c0-0.7-0.1-1.3-0.2-1.6
		c-0.2-0.6-0.7-1-1.3-1.3c-0.3-0.1-0.8-0.2-1.6-0.2c-0.4,0-1,0-1.8,0h-0.9c-0.8,0-1.4,0-1.8,0c-0.7,0-1.3,0.1-1.6,0.2
		c-0.6,0.2-1,0.7-1.3,1.3c-0.1,0.3-0.2,0.8-0.2,1.6c0,0.4,0,1,0,1.8v0.9c0,0.8,0,1.4,0,1.8c0,0.7,0.1,1.3,0.2,1.6
		c0.3,0.6,0.7,1,1.3,1.3c0.3,0.1,0.9,0.2,1.6,0.2c0.4,0,1,0,1.8,0h0.9c0.8,0,1.4,0,1.8,0c0.7,0,1.3-0.1,1.6-0.2
		c0.6-0.3,1-0.7,1.3-1.3C20.2,18.5,20.3,18,20.4,17.3z M16.7,12.1c0.5,0.3,0.9,0.7,1.2,1.2c0.3,0.5,0.5,1.1,0.5,1.7
		c0,0.6-0.2,1.2-0.5,1.7c-0.3,0.5-0.7,0.9-1.2,1.2c-0.5,0.3-1.1,0.5-1.7,0.5c-0.6,0-1.2-0.2-1.7-0.5c-0.5-0.3-0.9-0.7-1.2-1.2
		c-0.3-0.5-0.5-1.1-0.5-1.7c0-0.6,0.2-1.2,0.5-1.7c0.3-0.5,0.7-0.9,1.2-1.2c0.5-0.3,1.1-0.5,1.7-0.5C15.6,11.6,16.2,11.8,16.7,12.1z
		 M16.6,16.6c0.4-0.4,0.6-0.9,0.6-1.6c0-0.6-0.2-1.1-0.6-1.6c-0.4-0.4-0.9-0.6-1.6-0.6c-0.6,0-1.1,0.2-1.6,0.6
		c-0.4,0.4-0.6,0.9-0.6,1.6c0,0.6,0.2,1.1,0.6,1.6c0.4,0.4,0.9,0.6,1.6,0.6C15.6,17.2,16.1,17,16.6,16.6z M19.1,10.9
		c-0.2-0.2-0.3-0.2-0.6-0.2c-0.2,0-0.4,0.1-0.6,0.2c-0.2,0.2-0.2,0.3-0.2,0.6c0,0.2,0.1,0.4,0.2,0.6c0.2,0.2,0.3,0.2,0.6,0.2
		c0.2,0,0.4-0.1,0.5-0.2c0.1-0.2,0.2-0.3,0.2-0.6C19.3,11.3,19.2,11.1,19.1,10.9z"/>
</g>
</svg>
