<?xml version="1.0" encoding="utf-8"?>
<!-- Generator: Adobe Illustrator 22.0.1, SVG Export Plug-In . SVG Version: 6.00 Build 0)  -->
<svg version="1.1" id="Слой_1" xmlns="http://www.w3.org/2000/svg" xmlns:xlink="http://www.w3.org/1999/xlink" x="0px" y="0px"
	 viewBox="0 0 50 50" style="enable-background:new 0 0 50 50;" xml:space="preserve">
<g>
	<circle cx="25" cy="25" r="25"/>
</g>
<g>
	<path style="fill:#FFFFFF;" d="M33.8,25c0,1.7,0,2.9-0.1,3.7s-0.2,1.4-0.3,1.9c-0.2,0.7-0.6,1.2-1.1,1.7c-0.5,0.5-1,0.8-1.7,1.1
		c-0.5,0.2-1.2,0.3-1.9,0.3s-2,0.1-3.7,0.1c-1.7,0-2.9,0-3.7-0.1s-1.4-0.2-1.9-0.4c-0.7-0.2-1.2-0.6-1.7-1c-0.5-0.5-0.8-1-1.1-1.7
		c-0.2-0.5-0.3-1.2-0.3-1.9s-0.1-2-0.1-3.7c0-1.7,0-2.9,0.1-3.7s0.1-1.4,0.3-1.9c0.2-0.7,0.6-1.2,1.1-1.7c0.5-0.5,1-0.8,1.7-1.1
		c0.5-0.2,1.2-0.3,1.9-0.3s2-0.1,3.7-0.1c1.7,0,2.9,0,3.7,0.1s1.4,0.2,1.9,0.3c0.7,0.2,1.2,0.6,1.7,1.1c0.5,0.5,0.8,1,1.1,1.7
		c0.2,0.5,0.3,1.2,0.4,2C33.7,22.1,33.8,23.3,33.8,25z M32.1,28c0-0.6,0-1.4,0-2.4v-1.3c0-1.1,0-1.9,0-2.4c-0.1-1-0.2-1.7-0.3-2.1
		c-0.3-0.8-0.9-1.4-1.7-1.7C29.7,18,29,17.9,28,17.9c-0.6,0-1.4,0-2.4,0h-1.3c-1,0-1.8,0-2.4,0c-1,0.1-1.7,0.2-2.1,0.3
		c-0.8,0.3-1.4,0.9-1.7,1.7C18,20.3,17.9,21,17.9,22c0,0.6,0,1.4,0,2.4v1.3c0,1,0,1.8,0,2.4c0.1,1,0.2,1.7,0.3,2.1
		c0.3,0.8,0.9,1.4,1.7,1.7c0.4,0.2,1.1,0.3,2.1,0.3c0.6,0,1.4,0,2.4,0h1.3c1.1,0,1.9,0,2.4,0c1-0.1,1.7-0.2,2.1-0.3
		c0.8-0.3,1.4-0.9,1.7-1.7C32,29.7,32.1,29,32.1,28z M27.2,21.1c0.7,0.4,1.2,1,1.6,1.6c0.4,0.7,0.6,1.4,0.6,2.2
		c0,0.8-0.2,1.6-0.6,2.2c-0.4,0.7-1,1.2-1.6,1.6c-0.7,0.4-1.4,0.6-2.2,0.6c-0.8,0-1.6-0.2-2.2-0.6c-0.7-0.4-1.2-1-1.6-1.6
		c-0.4-0.7-0.6-1.4-0.6-2.2c0-0.8,0.2-1.6,0.6-2.2c0.4-0.7,1-1.2,1.6-1.6c0.7-0.4,1.4-0.6,2.2-0.6C25.8,20.5,26.6,20.7,27.2,21.1z
		 M27.1,27.1c0.6-0.6,0.9-1.3,0.9-2.1c0-0.8-0.3-1.5-0.9-2.1c-0.6-0.6-1.3-0.9-2.1-0.9c-0.8,0-1.5,0.3-2.1,0.9
		c-0.6,0.6-0.9,1.3-0.9,2.1c0,0.8,0.3,1.5,0.9,2.1c0.6,0.6,1.3,0.9,2.1,0.9C25.8,27.9,26.5,27.6,27.1,27.1z M30.4,19.6
		c-0.2-0.2-0.5-0.3-0.7-0.3c-0.3,0-0.5,0.1-0.7,0.3c-0.2,0.2-0.3,0.5-0.3,0.7c0,0.3,0.1,0.5,0.3,0.7c0.2,0.2,0.5,0.3,0.7,0.3
		c0.3,0,0.5-0.1,0.7-0.3c0.2-0.2,0.3-0.5,0.3-0.7C30.7,20,30.6,19.8,30.4,19.6z"/>
</g>
</svg>
