<?xml version="1.0" encoding="utf-8"?>
<!-- Generator: Adobe Illustrator 22.0.1, SVG Export Plug-In . SVG Version: 6.00 Build 0)  -->
<svg version="1.1" id="Слой_1" xmlns="http://www.w3.org/2000/svg" xmlns:xlink="http://www.w3.org/1999/xlink" x="0px" y="0px"
	 viewBox="0 0 19.6 18.83" style="enable-background:new 0 0 19.6 18.83;" xml:space="preserve">
<g>
	
		<line style="fill:none;stroke:#000000;stroke-linecap:round;stroke-linejoin:round;stroke-miterlimit:10;" x1="0.5" y1="18.33" x2="19.1" y2="18.33"/>
	
		<line style="fill:none;stroke:#000000;stroke-linecap:round;stroke-linejoin:round;stroke-miterlimit:10;" x1="7.75" y1="15.6" x2="7.75" y2="8.85"/>
	
		<line style="fill:none;stroke:#000000;stroke-linecap:round;stroke-linejoin:round;stroke-miterlimit:10;" x1="11.85" y1="8.85" x2="11.85" y2="15.6"/>
	
		<line style="fill:none;stroke:#000000;stroke-linecap:round;stroke-linejoin:round;stroke-miterlimit:10;" x1="16" y1="8.85" x2="16" y2="15.6"/>
	
		<line style="fill:none;stroke:#000000;stroke-linecap:round;stroke-linejoin:round;stroke-miterlimit:10;" x1="3.6" y1="15.6" x2="3.6" y2="8.85"/>
	<path style="fill:none;stroke:#000000;stroke-linecap:round;stroke-linejoin:round;stroke-miterlimit:10;" d="M18.5,5.93H1.1
		c-0.28,0-0.52-0.19-0.59-0.46C0.45,5.2,0.58,4.92,0.83,4.8l8.52-4.2l0,0c0.28-0.14,0.62-0.14,0.9,0l8.52,4.2
		c0.25,0.12,0.38,0.4,0.32,0.66C19.02,5.74,18.78,5.93,18.5,5.93z"/>
	
		<circle style="fill:none;stroke:#000000;stroke-linecap:round;stroke-linejoin:round;stroke-miterlimit:10;" cx="9.8" cy="3.6" r="0.78"/>
	
		<line style="fill:none;stroke:#000000;stroke-linecap:round;stroke-linejoin:round;stroke-miterlimit:10;" x1="2.05" y1="16.78" x2="17.55" y2="16.78"/>
	
		<line style="fill:none;stroke:#000000;stroke-linecap:round;stroke-linejoin:round;stroke-miterlimit:10;" x1="17.55" y1="7.48" x2="2.05" y2="7.48"/>
</g>
</svg>
