<?xml version="1.0" encoding="utf-8"?>
<!-- Generator: Adobe Illustrator 22.0.1, SVG Export Plug-In . SVG Version: 6.00 Build 0)  -->
<svg version="1.1" id="Слой_1" xmlns="http://www.w3.org/2000/svg" xmlns:xlink="http://www.w3.org/1999/xlink" x="0px" y="0px"
	 viewBox="0 0 18.67 17.06" style="enable-background:new 0 0 18.67 17.06;" xml:space="preserve">
<title>Artboard 3</title>
<g>
	<path style="fill:none;stroke:#000000;stroke-miterlimit:10;" d="M14.95,9.73V2.51c0-1.11-0.9-2.01-2.01-2.01H2.51
		C1.4,0.5,0.5,1.4,0.5,2.51v7.23c0,1.11,0.9,2.01,2.01,2.01h2.81v2.01c0,0.22,0.18,0.4,0.4,0.4c0.09,0,0.17-0.03,0.24-0.08
		l3.11-2.33h3.88C14.06,11.74,14.95,10.84,14.95,9.73z"/>
	<path style="fill:none;stroke:#000000;stroke-miterlimit:10;" d="M9.49,14.07L9.49,14.07l3.21,2.41c0.07,0.05,0.15,0.08,0.24,0.08
		c0.22,0,0.4-0.18,0.4-0.4c0,0,0,0,0,0v-2.01h2.81c1.11,0,2.01-0.9,2.01-2.01V4.92c0-1.11-0.9-2.01-2.01-2.01"/>
</g>
</svg>
