<?xml version="1.0" encoding="utf-8"?>
<!-- Generator: Adobe Illustrator 22.0.1, SVG Export Plug-In . SVG Version: 6.00 Build 0)  -->
<svg version="1.1" xmlns="http://www.w3.org/2000/svg" xmlns:xlink="http://www.w3.org/1999/xlink" x="0px" y="0px"
	 viewBox="0 0 21.64 20.66" style="enable-background:new 0 0 21.64 20.66;" xml:space="preserve">
<style type="text/css">
	.st0{fill:none;stroke:#000000;stroke-linecap:round;stroke-linejoin:round;stroke-miterlimit:10;}
</style>
<g id="Слой_2">
</g>
<g id="Слой_1">
	<g>
		<path class="st0" d="M16.08,13.96l1.06,6.2l-5.71-3.02c-0.24-0.16-0.49-0.16-0.73-0.16c-0.24,0-0.49,0.08-0.73,0.16l-5.55,2.94
			l1.06-6.28c0.08-0.57-0.08-1.06-0.49-1.47L0.5,7.92l6.36-0.9c0.57-0.08,0.98-0.41,1.22-0.9l2.77-5.63l2.86,5.71
			c0.24,0.49,0.73,0.82,1.22,0.9l6.2,0.9l-4.65,4.49C16.16,12.9,15.92,13.39,16.08,13.96z"/>
	</g>
</g>
</svg>
