<?xml version="1.0" encoding="utf-8"?>
<!-- Generator: Adobe Illustrator 22.0.1, SVG Export Plug-In . SVG Version: 6.00 Build 0)  -->
<svg version="1.1" id="Слой_1" xmlns="http://www.w3.org/2000/svg" xmlns:xlink="http://www.w3.org/1999/xlink" x="0px" y="0px"
	 viewBox="0 0 18.776 19.556" style="enable-background:new 0 0 18.776 19.556;" xml:space="preserve">
<g>
	<path style="fill:none;stroke:#000000;stroke-linecap:round;stroke-linejoin:round;stroke-miterlimit:10;" d="M14.886,8.662
		c0.066,0,0.132-0.025,0.181-0.076c0.229-0.233,0.354-0.554,0.354-0.902c0-0.002-0.001-0.004-0.001-0.006V7.175
		c0-0.41-0.326-0.743-0.732-0.758V4.998v0C14.687,2.517,12.62,0.5,10.08,0.5c-2.537,0-4.6,2.012-4.607,4.488
		c0,0.004-0.002,0.007-0.002,0.01v1.419C5.065,6.433,4.739,6.766,4.739,7.176v0.508c0,0.001,0,0.001,0,0.002
		C4.74,8.259,5.093,8.738,5.563,8.863c0.125,1.415,1.398,3.413,2.561,3.679l0.002,0.841c-2.775,0.307-7.302,3.046-7.567,4.315
		C0.521,17.804,0.5,17.918,0.5,18.037c0,0.562,0.457,1.019,1.018,1.019c0,0,0,0,0,0h7.964"/>
	<path style="fill:none;stroke:#000000;stroke-linecap:round;stroke-linejoin:round;stroke-miterlimit:10;" d="M5.979,5.007"/>
	<path style="fill:none;stroke:#000000;stroke-linecap:round;stroke-linejoin:round;stroke-miterlimit:10;" d="M14.272,18.227
		c-2.207,0-4.004-1.796-4.004-4.004s1.796-4.004,4.004-4.004s4.004,1.796,4.004,4.004S16.48,18.227,14.272,18.227z"/>
	<path style="fill:none;stroke:#000000;stroke-linecap:round;stroke-linejoin:round;stroke-miterlimit:10;" d="M15.374,12.187
		c-0.095-0.095-0.264-0.095-0.359,0l-2.781,2.781c-0.004,0.004-0.005,0.009-0.008,0.013c-0.016,0.017-0.028,0.037-0.038,0.058
		c-0.004,0.008-0.008,0.015-0.011,0.022c-0.01,0.027-0.017,0.056-0.017,0.087v0.933c0,0.14,0.114,0.254,0.254,0.254l0.935,0.001h0
		c0.002,0,0.004,0,0.005,0c0.077,0,0.143-0.036,0.19-0.09l2.765-2.765c0.048-0.048,0.074-0.112,0.074-0.18
		c0-0.068-0.027-0.132-0.074-0.18L15.374,12.187z"/>
</g>
</svg>
