<?xml version="1.0" encoding="utf-8"?>
<!-- Generator: Adobe Illustrator 22.0.1, SVG Export Plug-In . SVG Version: 6.00 Build 0)  -->
<svg version="1.1"
	 id="Слой_1" xmlns:cc="http://creativecommons.org/ns#" xmlns:dc="http://purl.org/dc/elements/1.1/" xmlns:inkscape="http://www.inkscape.org/namespaces/inkscape" xmlns:rdf="http://www.w3.org/1999/02/22-rdf-syntax-ns#" xmlns:sodipodi="http://sodipodi.sourceforge.net/DTD/sodipodi-0.dtd" xmlns:svg="http://www.w3.org/2000/svg"
	 xmlns="http://www.w3.org/2000/svg" xmlns:xlink="http://www.w3.org/1999/xlink" x="0px" y="0px" viewBox="0 0 18.01 18.01"
	 style="enable-background:new 0 0 18.01 18.01;" xml:space="preserve">
<g transform="translate(0,-952.36218)">
	<g transform="matrix(0.53488372,0,0,0.53488372,-83.039743,568.66783)">
	</g>
	<g transform="matrix(0.53488372,0,0,0.53488372,-4.4380677,611.18764)">
	</g>
	<g transform="matrix(0.53488372,0,0,0.53488372,79.561933,597.18764)">
	</g>
	<path style="fill:none;stroke:#000000;stroke-miterlimit:10;" d="M9.01,952.86c-2.29,0-4.36,0.4-5.89,1.08
		c-0.77,0.34-1.41,0.75-1.87,1.24s-0.75,1.06-0.75,1.69v8.99c0,0.62,0.29,1.2,0.75,1.69s1.1,0.9,1.87,1.24
		c1.53,0.68,3.6,1.09,5.89,1.09s4.36-0.41,5.89-1.09c0.77-0.34,1.41-0.75,1.87-1.24s0.75-1.06,0.75-1.69v-8.99
		c0-0.62-0.29-1.2-0.75-1.69s-1.1-0.9-1.87-1.24C13.37,953.26,11.3,952.86,9.01,952.86z"/>
	<path style="fill:none;stroke:#000000;stroke-miterlimit:10;" d="M0.51,956.9c0,0.01,0,0.03,0,0.04c0.12,1.2,1.21,2.12,2.73,2.77
		s3.54,1.03,5.76,1.03s4.24-0.38,5.76-1.03s2.6-1.57,2.73-2.77"/>
	<path style="fill:none;stroke:#000000;stroke-miterlimit:10;" d="M0.51,962.92c0,0.01,0,0.03,0,0.04c0.12,1.2,1.21,2.12,2.73,2.77
		s3.54,1.03,5.76,1.03s4.24-0.38,5.76-1.03s2.6-1.57,2.73-2.77"/>
	<path style="fill:none;stroke:#000000;stroke-miterlimit:10;" d="M0.51,960.02c0,0.01,0,0.03,0,0.04c0.12,1.2,1.21,2.12,2.73,2.77
		s3.54,1.03,5.76,1.03s4.24-0.38,5.76-1.03s2.6-1.57,2.73-2.77"/>
</g>
</svg>
