<?xml version="1.0" encoding="utf-8"?>
<!-- Generator: Adobe Illustrator 22.0.1, SVG Export Plug-In . SVG Version: 6.00 Build 0)  -->
<svg version="1.1" id="Слой_1" xmlns="http://www.w3.org/2000/svg" xmlns:xlink="http://www.w3.org/1999/xlink" x="0px" y="0px"
	 viewBox="0 0 18 18" style="enable-background:new 0 0 18 18;" xml:space="preserve">
<title>Artboard 6</title>
<path d="M15.95,0H2.05C0.92,0,0,0.92,0,2.05v13.91C0,17.08,0.92,18,2.05,18h13.91c1.13,0,2.05-0.92,2.05-2.05V2.05
	C18,0.92,17.08,0,15.95,0z M15.95,17H2.05C1.47,17,1,16.53,1,15.95v-1.04h9.55c0.28,0,0.5-0.22,0.5-0.5s-0.22-0.5-0.5-0.5H1v-2.09
	h4.14c0.28,0,0.5-0.22,0.5-0.5s-0.22-0.5-0.5-0.5H1V2.05C1,1.47,1.47,1,2.05,1h13.91C16.53,1,17,1.47,17,2.05v8.77H8.23
	c-0.28,0-0.5,0.22-0.5,0.5s0.22,0.5,0.5,0.5H17v2.09h-3.36c-0.28,0-0.5,0.22-0.5,0.5s0.22,0.5,0.5,0.5H17v1.04
	C17,16.53,16.53,17,15.95,17z"/>
</svg>
