<?xml version="1.0" encoding="utf-8"?>
<!-- Generator: Adobe Illustrator 22.0.1, SVG Export Plug-In . SVG Version: 6.00 Build 0)  -->
<svg version="1.1" id="Слой_1" xmlns="http://www.w3.org/2000/svg" xmlns:xlink="http://www.w3.org/1999/xlink" x="0px" y="0px"
	 viewBox="0 0 30 30" style="enable-background:new 0 0 30 30;" xml:space="preserve">
<g>
	<circle cx="15" cy="15" r="15"/>
</g>
<g>
	<path style="fill:#FFFFFF;" d="M21.5,10.5l-2,9.3c-0.1,0.3-0.2,0.5-0.4,0.6c-0.2,0.1-0.4,0.1-0.7-0.1l-3-2.2L14,19.5
		c-0.1,0.1-0.2,0.2-0.2,0.2c-0.1,0.1-0.2,0.1-0.4,0.1l0.2-3.1l5.6-5.1c0.1-0.1,0.1-0.1,0.1-0.2c0,0-0.1-0.1-0.2-0.1
		c-0.1,0-0.2,0-0.3,0.1l-6.9,4.4l-3-0.9c-0.3-0.1-0.5-0.2-0.5-0.4c0-0.2,0.2-0.4,0.6-0.5l11.6-4.5c0.3-0.1,0.5-0.1,0.7,0.1
		C21.6,9.8,21.6,10.1,21.5,10.5z"/>
</g>
</svg>
