<?xml version="1.0" encoding="utf-8"?>
<!-- Generator: Adobe Illustrator 22.0.1, SVG Export Plug-In . SVG Version: 6.00 Build 0)  -->
<svg version="1.1" id="Слой_1" xmlns="http://www.w3.org/2000/svg" xmlns:xlink="http://www.w3.org/1999/xlink" x="0px" y="0px"
	 viewBox="0 0 50 50" style="enable-background:new 0 0 50 50;" xml:space="preserve">
<g>
	<circle cx="25" cy="25" r="25"/>
</g>
<g>
	<path style="fill:#FFFFFF;" d="M33.7,19l-2.7,12.4c-0.1,0.4-0.3,0.7-0.5,0.8c-0.2,0.1-0.6,0.1-0.9-0.1l-4-3l-2,1.9
		c-0.1,0.1-0.2,0.2-0.3,0.3c-0.1,0.1-0.3,0.1-0.5,0.1l0.3-4.1l7.5-6.8c0.1-0.1,0.1-0.1,0.1-0.2c0-0.1-0.1-0.1-0.2-0.1
		c-0.1,0-0.2,0.1-0.4,0.1l-9.2,5.8l-4-1.3c-0.4-0.1-0.7-0.3-0.6-0.6c0-0.3,0.3-0.5,0.8-0.7l15.5-6c0.4-0.1,0.7-0.1,0.9,0.1
		C33.7,18.1,33.8,18.5,33.7,19z"/>
</g>
</svg>
