<?xml version="1.0" encoding="utf-8"?>
<!-- Generator: Adobe Illustrator 22.0.1, SVG Export Plug-In . SVG Version: 6.00 Build 0)  -->
<svg version="1.1" id="Слой_1" xmlns="http://www.w3.org/2000/svg" xmlns:xlink="http://www.w3.org/1999/xlink" x="0px" y="0px"
	 viewBox="0 0 19.5 17.77" style="enable-background:new 0 0 19.5 17.77;" xml:space="preserve">
<path style="fill:none;stroke:#000000;stroke-miterlimit:10;" d="M2.14,7.91l2.38,1.58c0,0.02-0.02,0.04-0.02,0.06v4.16
	c0,1.9,2.42,3.56,5.15,3.56c2.79,0,5.15-1.62,5.15-3.56V9.64l4-2.66C18.92,6.9,19,6.76,19,6.6c0.02-0.16-0.06-0.3-0.2-0.38
	l-8.77-5.66c-0.02-0.02-0.04-0.02-0.06-0.02C9.93,0.52,9.91,0.5,9.87,0.5c-0.02,0-0.04,0-0.08,0c-0.04,0-0.06,0-0.1,0
	c-0.04,0-0.06,0.02-0.08,0.04c-0.02,0-0.04,0.02-0.06,0.02L0.7,6.22C0.58,6.3,0.5,6.44,0.5,6.6c0,0.16,0.08,0.3,0.2,0.38l1.47,0.95
	c0,0.02,0,0.02,0,0.04v8.02"/>
<polyline style="fill:none;stroke:#000000;stroke-miterlimit:10;" points="17.73,7.69 9.77,12.97 4.24,9.31 "/>
<path style="display:none;fill:none;stroke:#000000;stroke-miterlimit:10;" d="M9.77,16.34l-6.18-4.06l3.25-2.16
	c0.2-0.14,0.26-0.42,0.12-0.61c-0.14-0.2-0.42-0.26-0.61-0.12l-3.56,2.36l-1.03-0.69l8.04-5.13l7.96,5.13L9.77,16.34z"/>
<path style="fill:none;stroke:#000000;stroke-miterlimit:10;" d="M5.48,5.86l-3.31,2.1"/>
</svg>
