<?xml version="1.0" encoding="utf-8"?>
<!-- Generator: Adobe Illustrator 22.0.1, SVG Export Plug-In . SVG Version: 6.00 Build 0)  -->
<svg version="1.1" id="Слой_1" xmlns="http://www.w3.org/2000/svg" xmlns:xlink="http://www.w3.org/1999/xlink" x="0px" y="0px"
	 viewBox="0 0 30 30" style="enable-background:new 0 0 30 30;" xml:space="preserve">
<g>
	<circle cx="15" cy="15" r="15"/>
</g>
<g>
	<path style="fill:#FFFFFF;" d="M22.4,13.6l0,1.4l0,1.4c-0.1,1-0.1,1.8-0.3,2.3c-0.1,0.3-0.3,0.6-0.5,0.8c-0.2,0.2-0.5,0.4-0.8,0.5
		c-0.5,0.1-1.6,0.2-3.3,0.3l-2.5,0l-2.5,0c-1.8-0.1-2.9-0.1-3.3-0.3c-0.3-0.1-0.6-0.3-0.8-0.5c-0.2-0.2-0.4-0.5-0.5-0.8
		c-0.1-0.5-0.2-1.2-0.3-2.3l0-1.4c0-0.4,0-0.9,0-1.4c0.1-1,0.1-1.8,0.3-2.2c0.1-0.3,0.3-0.6,0.5-0.8c0.2-0.2,0.5-0.4,0.8-0.5
		c0.5-0.1,1.6-0.2,3.3-0.3l2.5,0l2.5,0c1.8,0.1,2.9,0.1,3.3,0.3c0.3,0.1,0.6,0.3,0.8,0.5c0.2,0.2,0.4,0.5,0.5,0.8
		C22.3,11.9,22.4,12.6,22.4,13.6z M17.4,15l-3.9-2.2v4.5L17.4,15z"/>
</g>
</svg>
