<?xml version="1.0" encoding="utf-8"?>
<!-- Generator: Adobe Illustrator 22.0.1, SVG Export Plug-In . SVG Version: 6.00 Build 0)  -->
<svg version="1.1" id="Слой_1" xmlns="http://www.w3.org/2000/svg" xmlns:xlink="http://www.w3.org/1999/xlink" x="0px" y="0px"
	 viewBox="0 0 50 50" style="enable-background:new 0 0 50 50;" xml:space="preserve">
<g>
	<circle cx="25" cy="25" r="25"/>
</g>
<g>
	<path style="fill:#FFFFFF;" d="M35.6,23l0,2l0,2c-0.1,1.5-0.2,2.5-0.4,3.2c-0.1,0.4-0.4,0.8-0.7,1.2c-0.3,0.3-0.7,0.6-1.2,0.7
		c-0.7,0.2-2.3,0.3-4.8,0.4l-3.6,0l-3.6,0c-2.5-0.1-4.1-0.2-4.8-0.4c-0.5-0.1-0.9-0.4-1.2-0.7c-0.3-0.3-0.6-0.7-0.7-1.2
		c-0.2-0.7-0.3-1.8-0.4-3.2l0-2c0-0.6,0-1.2,0-2c0.1-1.4,0.2-2.5,0.4-3.2c0.1-0.5,0.4-0.9,0.7-1.2c0.3-0.3,0.7-0.6,1.2-0.7
		c0.7-0.2,2.3-0.3,4.8-0.4l3.6,0l3.6,0c2.5,0.1,4.1,0.2,4.8,0.4c0.5,0.1,0.9,0.4,1.2,0.7c0.3,0.3,0.6,0.7,0.7,1.2
		C35.4,20.5,35.5,21.6,35.6,23z M28.4,25l-5.6-3.2v6.4L28.4,25z"/>
</g>
</svg>
