<svg xmlns="http://www.w3.org/2000/svg" xmlns:xlink="http://www.w3.org/1999/xlink"><symbol id="arrow-left" viewBox="0 0 53 27.64"><path d="M14.04 1L1.87 12.88h0l-.87.87 1.01 1.01h0l12.17 11.88M1.29 13.75H52" fill="none" stroke="#000" stroke-width="2" stroke-linecap="round" stroke-linejoin="round" stroke-miterlimit="10"/></symbol><symbol id="arrow-right" viewBox="0 0 53 27.64"><path d="M38.96 26.64l12.17-11.88h0l.87-.87-1.01-1.01h0L38.82 1M51.71 13.89H1" fill="none" stroke="#000" stroke-width="2" stroke-linecap="round" stroke-linejoin="round" stroke-miterlimit="10"/></symbol><symbol id="clock" viewBox="0 0 18.17 18.17"><g fill="none" stroke="#000" stroke-width="1.5" stroke-miterlimit="10"><path d="M9.08.75c4.62 0 8.33 3.8 8.33 8.33s-3.8 8.33-8.33 8.33S.75 13.53.75 9.08 4.46.75 9.08.75z"/><path d="M9.08 4.71v4.46l3.06 1.89" stroke-linecap="round" stroke-linejoin="round"/></g></symbol><symbol id="complexity" viewBox="0 0 23.32 21.88"><g fill="none" stroke="#000" stroke-linecap="round" stroke-linejoin="round" stroke-miterlimit="10"><path d="M5.43 16.94l.97-4.54 1.18.19.54 2.28"/><path d="M9.95 13.86l-.45-1.93c-.16-.68-.71-1.2-1.39-1.29l-1.27-.21.47-2.21c.05.07.1.11.15.18.32.47.84.8 1.43.87l1.76.24c.19.02.38-.02.54-.09.24-.14.4-.35.45-.66a.876.876 0 0 0-.75-.99l-1.77-.24a.392.392 0 0 1-.23-.14c-1.5-2.14-1.81-2.26-2.26-2.28L5.2 5.04c-.28-.02-.54-.02-2.68 1.27-.45.26-.82.66-1.06 1.13L.59 9.27c-.21.42-.05.94.38 1.18.42.21.96.05 1.18-.38l.92-1.79c.09-.19.24-.33.4-.45.07-.05.12-.07.19-.12l-.52 2.33c-.09.45 0 .94.26 1.32.24.35.63.61 1.06.71l-1.2 5.48"/><ellipse cx="6.24" cy="2.75" rx="1.93" ry="1.93"/><path d="M16.48 1.28h-3.17c-.28 0-.49.21-.49.49v2.59c0 .28.21.49.49.49h3.2"/><path d="M16.5 9.58a.49.49 0 0 0-.16.16l-2.89 3.97c-.12.14-.26.26-.45.31l-3.57 1.1c-.16.05-.31.14-.42.28l-1.48 1.86c-.12.14-.26.24-.42.28l-3.88 1.08c-.24.07-.42.24-.54.45l-.52 1.08c-.28.56.14 1.22.75 1.22h19.06c.56-.02.99-.59.8-1.13l-1.79-5.48a.95.95 0 0 0-.09-.21l-3.17-4.79c-.05-.09-.62-.14-.71-.21V.5"/></g><path fill="none" stroke="#000" stroke-linecap="round" stroke-linejoin="round" stroke-miterlimit="10" d="M16.5 9.58h1.01"/></symbol><symbol id="facebook" viewBox="0 0 50 50"><circle cx="25" cy="25" r="25"/><path d="M23.2 33.5v-7.6h-2.6v-3h2.6v-2.4c0-1.3.4-2.2 1.1-2.9.7-.7 1.6-1 2.8-1 1 0 1.7 0 2.3.1v2.7h-1.6c-.6 0-1 .1-1.2.4-.2.2-.3.6-.3 1.1V23h2.8l-.4 3h-2.4v7.6h-3.1z" fill="#fff"/></symbol><symbol id="fb-header" viewBox="0 0 30 30"><circle cx="15" cy="15" r="15"/><path d="M13.6 21.5v-5.8h-2v-2.3h2v-1.8c0-1 .3-1.7.8-2.2.5-.5 1.3-.8 2.2-.8.7 0 1.3 0 1.8.1v2.1h-1.2c-.5 0-.8.1-.9.3-.1.2-.2.4-.2.8v1.6h2.2l-.3 2.3h-2v5.8h-2.4z" fill="#fff"/></symbol><symbol id="instagram-header" viewBox="0 0 30 30"><circle cx="15" cy="15" r="15"/><path d="M21.6 15v2.7c0 .5-.1 1-.2 1.5-.2.5-.4.9-.8 1.3s-.8.6-1.3.8c-.4.1-.9.2-1.5.2h-5.4c-.5 0-1-.1-1.5-.3-.5-.2-.9-.4-1.3-.8s-.6-.8-.8-1.3c-.1-.4-.2-.9-.2-1.5v-2.7-2.7c0-.5.1-1 .2-1.5.2-.5.4-.9.8-1.3s.8-.6 1.3-.8c.4-.1.9-.2 1.5-.2h5.4c.5 0 1 .1 1.5.2.5.2.9.4 1.3.8s.6.8.8 1.3c.1.4.2.9.3 1.5-.1.6-.1 1.5-.1 2.8zm-1.2 2.3v-2.7-1.8c0-.7-.1-1.3-.2-1.6-.2-.6-.7-1-1.3-1.3-.3-.1-.8-.2-1.6-.2h-4.5c-.7 0-1.3.1-1.6.2-.6.2-1 .7-1.3 1.3-.1.3-.2.8-.2 1.6v4.5c0 .7.1 1.3.2 1.6.3.6.7 1 1.3 1.3.3.1.9.2 1.6.2h4.5c.7 0 1.3-.1 1.6-.2.6-.3 1-.7 1.3-1.3 0-.4.1-.9.2-1.6zm-3.7-5.2c.5.3.9.7 1.2 1.2.3.5.5 1.1.5 1.7 0 .6-.2 1.2-.5 1.7s-.7.9-1.2 1.2c-.5.3-1.1.5-1.7.5-.6 0-1.2-.2-1.7-.5s-.9-.7-1.2-1.2c-.3-.5-.5-1.1-.5-1.7 0-.6.2-1.2.5-1.7s.7-.9 1.2-1.2c.5-.3 1.1-.5 1.7-.5.6 0 1.2.2 1.7.5zm-.1 4.5c.4-.4.6-.9.6-1.6 0-.6-.2-1.1-.6-1.6-.4-.4-.9-.6-1.6-.6-.6 0-1.1.2-1.6.6-.4.4-.6.9-.6 1.6 0 .6.2 1.1.6 1.6.4.4.9.6 1.6.6.6 0 1.1-.2 1.6-.6zm2.5-5.7c-.2-.2-.3-.2-.6-.2-.2 0-.4.1-.6.2-.2.2-.2.3-.2.6 0 .2.1.4.2.6.2.2.3.2.6.2.2 0 .4-.1.5-.2.1-.2.2-.3.2-.6.1-.2 0-.4-.1-.6z" fill="#fff"/></symbol><symbol id="instagram" viewBox="0 0 50 50"><circle cx="25" cy="25" r="25"/><path d="M33.8 25c0 1.7 0 2.9-.1 3.7s-.2 1.4-.3 1.9c-.2.7-.6 1.2-1.1 1.7-.5.5-1 .8-1.7 1.1-.5.2-1.2.3-1.9.3s-2 .1-3.7.1c-1.7 0-2.9 0-3.7-.1s-1.4-.2-1.9-.4c-.7-.2-1.2-.6-1.7-1-.5-.5-.8-1-1.1-1.7-.2-.5-.3-1.2-.3-1.9s-.1-2-.1-3.7c0-1.7 0-2.9.1-3.7s.1-1.4.3-1.9c.2-.7.6-1.2 1.1-1.7.5-.5 1-.8 1.7-1.1.5-.2 1.2-.3 1.9-.3s2-.1 3.7-.1c1.7 0 2.9 0 3.7.1s1.4.2 1.9.3c.7.2 1.2.6 1.7 1.1.5.5.8 1 1.1 1.7.2.5.3 1.2.4 2-.1.7 0 1.9 0 3.6zm-1.7 3v-3.7-2.4c-.1-1-.2-1.7-.3-2.1-.3-.8-.9-1.4-1.7-1.7-.4-.1-1.1-.2-2.1-.2h-6.1c-1 .1-1.7.2-2.1.3-.8.3-1.4.9-1.7 1.7-.1.4-.2 1.1-.2 2.1v6.1c.1 1 .2 1.7.3 2.1.3.8.9 1.4 1.7 1.7.4.2 1.1.3 2.1.3h6.1c1-.1 1.7-.2 2.1-.3.8-.3 1.4-.9 1.7-1.7.1-.5.2-1.2.2-2.2zm-4.9-6.9c.7.4 1.2 1 1.6 1.6.4.7.6 1.4.6 2.2 0 .8-.2 1.6-.6 2.2-.4.7-1 1.2-1.6 1.6-.7.4-1.4.6-2.2.6-.8 0-1.6-.2-2.2-.6-.7-.4-1.2-1-1.6-1.6-.4-.7-.6-1.4-.6-2.2 0-.8.2-1.6.6-2.2.4-.7 1-1.2 1.6-1.6.7-.4 1.4-.6 2.2-.6.8 0 1.6.2 2.2.6zm-.1 6c.6-.6.9-1.3.9-2.1s-.3-1.5-.9-2.1c-.6-.6-1.3-.9-2.1-.9s-1.5.3-2.1.9c-.6.6-.9 1.3-.9 2.1s.3 1.5.9 2.1c.6.6 1.3.9 2.1.9.8-.1 1.5-.4 2.1-.9zm3.3-7.5c-.2-.2-.5-.3-.7-.3-.3 0-.5.1-.7.3-.2.2-.3.5-.3.7 0 .3.1.5.3.7.2.2.5.3.7.3.3 0 .5-.1.7-.3.2-.2.3-.5.3-.7 0-.3-.1-.5-.3-.7z" fill="#fff"/></symbol><symbol id="institution" viewBox="0 0 19.6 18.83"><g fill="none" stroke="#000" stroke-linecap="round" stroke-linejoin="round" stroke-miterlimit="10"><path d="M.5 18.33h18.6M7.75 15.6V8.85M11.85 8.85v6.75M16 8.85v6.75M3.6 15.6V8.85M18.5 5.93H1.1a.61.61 0 0 1-.59-.46c-.06-.27.07-.55.32-.67L9.35.6h0c.28-.14.62-.14.9 0l8.52 4.2c.25.12.38.4.32.66-.07.28-.31.47-.59.47z"/><circle cx="9.8" cy="3.6" r=".78"/><path d="M2.05 16.78h15.5M17.55 7.48H2.05"/></g></symbol><symbol id="language" viewBox="0 0 18.67 17.06"><g fill="none" stroke="#000" stroke-miterlimit="10"><path d="M14.95 9.73V2.51c0-1.11-.9-2.01-2.01-2.01H2.51C1.4.5.5 1.4.5 2.51v7.23c0 1.11.9 2.01 2.01 2.01h2.81v2.01a.401.401 0 0 0 .64.32l3.11-2.33h3.88c1.11-.01 2-.91 2-2.02z"/><path d="M9.49 14.07h0l3.21 2.41a.401.401 0 0 0 .64-.32s0 0 0 0v-2.01h2.81c1.11 0 2.01-.9 2.01-2.01V4.92c0-1.11-.9-2.01-2.01-2.01"/></g></symbol><symbol id="level" viewBox="0 0 21.64 20.66"><path d="M16.08 13.96l1.06 6.2-5.71-3.02c-.24-.16-.49-.16-.73-.16s-.49.08-.73.16l-5.55 2.94 1.06-6.28a1.65 1.65 0 0 0-.49-1.47L.5 7.92l6.36-.9c.57-.08.98-.41 1.22-.9L10.85.49l2.86 5.71c.24.49.73.82 1.22.9l6.2.9-4.65 4.49c-.32.41-.56.9-.4 1.47z" fill="none" stroke="#000" stroke-linecap="round" stroke-linejoin="round" stroke-miterlimit="10"/></symbol><symbol id="logo" viewBox="0 0 208.87 219.25"><path d="M167.06 43.01c-1.05.42-2.12.79-3.14 1.27-4.49 2.1-8.06 5.44-11.74 8.66-3.56 3.11-10.5 3.68-14.32 1.14.68-.47 1.23-1.06 1.91-1.3 2.13-.76 4.26-1.6 6.47-2.04 3.45-.69 6.58-1.96 9.31-4.17.58-.47 1.02-1.13 1.52-1.71-.09-.07-.18-.13-.27-.2-2.34 1.18-4.69 2.35-7.03 3.53-.14-.21-.1-.14-.24-.35 2.47-2.3 4.31-5.01 5.42-8.19-.61.42-1.11.93-1.57 1.46-3.55 4.13-7.38 7.83-13.03 8.97-1.49.3-2.88 1.12-4.33 1.68-.34.13-.8.34-1.07.21-1.43-.65-2.82-1.38-4.65-2.31 2.36-.76 4.3-1.37 6.23-2.03 3.61-1.23 7.25-2.39 10.8-3.8 1.25-.5 2.25-1.62 3.36-2.46-.11-.17-.21-.34-.32-.51-1.92.83-3.84 1.65-5.76 2.48-.09-.15-.18-.31-.27-.46 1.16-1 2.32-2 3.49-2.99 1.89-1.61 4.01-2.57 6.56-2.21 2.73.39 5.46.77 8.19 1.21 1.47.23 2.93.57 4.39.86l.09-.4c-1.9-.79-3.81-1.59-6.14-2.56 1.58-.68 2.71-1.09 3.77-1.64.98-.52 1.89-1.18 2.83-1.78-.08-.14-.16-.27-.24-.41-4.57 1-8.83 3.42-13.75 3.07 4.52-2.96 9.35-5.48 12.06-10.48-4.78 5.13-10.97 8.04-17.15 11.08.18-.74.43-1.41.86-1.94 1.62-2.04 3.19-4.14 5-6 .99-1.02 2.35-1.75 3.66-2.35 2.01-.92 4.16-1.53 6.18-2.44.84-.38 1.49-1.19 2.23-1.8-.06-.03-.12-.05-.18-.08-2.38 1-4.76 2.01-7.14 3.01-.17-.21-.15-.19-.31-.4.77-.97 1.58-1.91 2.29-2.93.73-1.04 1.47-2.1 2.01-3.25.47-.99.67-2.11.98-3.17-.17-.05-.34-.1-.52-.15-2.2 4.21-5.36 7.58-9 10.56-3.67 3-6.55 6.65-8.32 11.06-2.56 6.37-8.38 7.72-14.03 9.42 2.12-2.99 4.99-5.13 7.81-7.36 2.24-1.77 4.18-3.92 6.17-5.99.46-.47.58-1.26.86-1.91-.15-.09-.29-.18-.44-.26-1.85 2.18-3.29 4.85-6.12 5.89-.18-.21-.18-.21-.35-.42 1.1-1.82 2.2-3.65 3.31-5.47-2.16 1.17-3.36 3.04-4.5 5-.79 1.37-1.74 2.65-2.81 3.81-2.47 2.68-5.04 5.28-7.6 7.88-.38.39-.92.62-1.38.92-.17-.76-.13-1.33.13-1.78 2.43-4.29 4.89-8.57 7.35-12.84.12-.21.39-.49.6-.61 4-2.35 7.99-4.73 12.04-7 2.31-1.3 4.83-2.26 7.07-3.66 2.11-1.32 3.67-3.25 4.67-5.92-2.53 1.97-4.83 3.75-7.12 5.53-.14-.15-.28-.3-.43-.45.87-1.26 1.63-2.63 2.65-3.76 1.04-1.14 2.37-2 3.52-3.04 1.09-.98 2.11-2.04 3.16-3.06-.11-.1-.21-.2-.32-.3-.91.71-1.79 1.47-2.74 2.13-.9.62-1.86 1.15-2.79 1.72-.23-.24-.19-.19-.41-.43 1.39-2.1 2.77-4.2 4.16-6.3-3.68 2.63-6.24 6.04-7.77 10.19-1.43 3.88-4.41 5.88-8.54 7.02 1.57-1.45 2.98-2.61 4.22-3.93 1.24-1.33 2.47-2.74 2.82-5.16-4.5 4.52-8.27 9.14-13.49 12.12.19-.83.54-1.51.95-2.15 1.29-2 2.73-3.92 3.89-6 2.25-4.05 5.16-7.27 9.71-8.69.19-.06.49-.19.66-.3 2.15-1.4 4-3.04 4.85-5.34-4 2.37-8.07 4.78-12.15 7.19l-.35-.29c1.64-4.16 4.58-7.46 7.66-10.65-.15-.15-.3-.3-.45-.44-1.43 1.13-2.87 2.26-4.56 3.59V.72c-2.65 7.75-4.94 15.32-9.68 21.89-.5-1.76-.96-3.48-1.04-5.22-.19-3.79.54-7.17 4-9.61 2.12-1.5 3.67-3.73 4.73-6.18-.5.27-.83.69-1.21 1.05-1.09 1.03-2.1 2.16-3.33 2.99-.62.42-1.77.58-2.41.29-.53-.24-.87-1.31-.96-2.05-.15-1.26-.04-2.56-.04-3.84l-.59-.03c-.1 2.04-.75 4.26-.17 6.08.69 2.16-.17 3.5-1.33 5.08-.22-3.47-.45-6.93-.67-10.4-1.42 3.2.55 6.85-1.38 9.93-.28-.01-.37-.01-.65-.02-1.65-2.66-3.3-5.33-4.96-7.99.2 2.5 1.08 4.71 2.47 6.74 3.35 4.91 5.29 10.06 4.36 16.26-.78 5.22-4.19 8.81-6.53 13.08-.35-2.84.46-5.3 1.99-7.59 1.98-2.96 2.68-6.33 2.92-9.86-.62 1.48-1.25 2.97-2.06 4.9-1.29-3.41-.5-6.31-.15-9.23-.25.2-.41.41-.52.64-1.18 2.36-1.51 4.81-1.05 7.43.34 1.92-.09 3.75-1.51 5.28-.64-2.57-1.13-5.12-1.46-7.68-.09-.66.21-1.44.53-2.06 1.35-2.57 1.94-5.29 1.91-8.17-.01-.74.09-1.49.14-2.24l-.44-.03c-.58 2.81-.64 5.79-2.16 8.31-.25-.07-.22-.06-.47-.12v-5.64l-.68-.03c-.23 2.89-.45 5.78-.71 9.07-1.42-3.13-3.13-5.78-1.71-9.09.36-.85.5-1.83.57-2.76.09-1.24.02-2.5.02-3.75h-.18c-.67 2.31-1.35 4.63-2.02 6.94-2.11-2.68-1.39-5.29-.45-8.11-2.39 1.23-2.13 3.22-2.02 5.03.11 1.88.47 3.74.75 5.8-2.49-1.33-3.21-3.84-4.62-5.78.21 3.03 1.8 5.26 4.02 7.15.96.82 2.17 1.52 2.75 2.56 4.48 8.07 5.32 16.69 2.4 25.85-1.23 3.86-3.18 7.45-5.63 10.68-2.95 3.88-5.95 7.73-8.93 11.59-.26-.65-.23-1.09-.1-1.5 1.59-4.96 3.22-9.9 4.79-14.87.68-2.15 1.87-3.79 3.84-5 3.26-2.01 4.59-5.33 5.58-8.85-2.06 2.68-3.76 5.69-7.16 7.56.47-2.37.97-4.39 1.25-6.45.28-2.06.8-4.19-.39-6.17.31 9.05-5.08 16.26-7.66 24.37-1.08-3.29-1.17-6.37.84-9.39 2.65-3.97 3.97-8.41 3.66-13.23-.13-1.95.52-3.53 1.7-5.05 1.49-1.92 2.84-3.96 4.14-6.02.37-.59.4-1.4.59-2.11-2.16 3.32-4.13 5.57-6.37 6.52.56-3.96 1.1-7.72 1.63-11.47-.2-.02-.4-.05-.61-.07-2.56 4.97-1.57 10.61-2.63 15.83-.93-2.15-1.9-4.25-2.76-6.39-1.25-3.08-1.93-6.12.26-9.17.96-1.33 1.57-2.9 2.35-4.36-.12-.07-.24-.14-.36-.22-1.61 1.98-3.23 3.96-4.97 6.09-1.33-2.31-2.51-4.37-3.7-6.43-.14.73.05 1.29.26 1.84 1.6 4.37 3.43 8.67 4.73 13.12 1.15 3.97 1.79 8.09 2.5 12.17.31 1.74-.92 4.26-2.62 5.75 1.67-4.27.61-7.94-1.21-11.49-.68-1.33-1.72-2.54-2.12-3.94-.78-2.75-1.12-5.62-1.83-8.39-.56-2.19-1.39-4.32-2.09-6.48l-.49.16 1.65 7.31c-.49.22-.39.18-.89.4-.79-1.09-1.59-2.18-2.38-3.27-.16.14-.33.28-.49.42 1.63 2.72 4.38 4.94 4.03 9.05-1.44-1.47-2.65-2.7-3.86-3.94.68 1.38 1.43 2.68 2.43 3.77 2.28 2.49 3.89 5.32 5.17 8.44 1.78 4.35-.03 8.15-1.28 12.13-1.63-3.88-3.2-7.69-3.72-11.86-.2-1.62-.66-3.21-1-4.82l-.74.15c.49 4.52.99 9.05 1.49 13.61-.96-.9-2.09-1.85-3.1-2.91-1.93-2.01-2.59-4.35-1.56-7.03.42-1.09 1-2.14 1.23-3.26.21-1 .04-2.08.04-3.13-1.3 3.83-1.3 3.83-2.45 4.76.79-2.56 1.19-4.98-.18-7.45-.23 2.14-.04 4.27-.75 6.04-1.42 3.53-.81 6.74 1.05 9.68 2.03 3.22 4.48 6.18 6.73 9.26.97 1.32 1.91 2.67 2.86 4.01l-.44.32c-4.02-3.98-9.93-6.01-12.13-11.96-.11.66-.17 1.28.02 1.81 1.03 2.79 2.42 5.35 4.89 7.17 1.29.96 2.59 1.91 3.79 2.98 4.05 3.56 5.2 8.01 3.86 13.37-.65-1.34-1.05-2.64-1.81-3.68-3.02-4.1-6.02-8.23-9.29-12.13-4.53-5.41-5.57-11.66-5-18.38.07-.89.37-1.75.82-2.52 1.97-3.34 3.98-6.65 6.08-9.9 1.7-2.62 2.33-5.47 2.21-8.56-1.45 2.74-1.5 6.17-4.37 8.32v-4.79c-.19-.02-.39-.05-.58-.07-.26 1.81-.79 3.63-.7 5.43.11 2.24-1.3 3.42-2.52 4.83-.08-6.17.42-12.05 6.94-15.23.96-.47 1.69-1.42 2.53-2.15l-.2-.14c-1.98.88-3.96 1.76-6.31 2.81.2-3.29.38-6.13.55-8.98-1.89 4.15-1.11 8.98-3.93 13.2-1.16-3.87-2.85-7.21-2.12-11.13.32-1.71.05-3.52.05-5.28-.15-.01-.3-.02-.46-.04.06 2.26.08 4.52-1.91 6.78-.78-2.59-1.45-4.78-2.11-6.97-.39 2.98.05 5.77 1.2 8.48 1.47 3.47 2.83 6.99 4.19 10.5.2.52.12 1.14.18 1.71-3.72-3.45-5.6-7.73-6.67-12.62-.3.38-.41.46-.41.54 0 .28.01.56.06.82.63 3.04 1.35 6.03 3.01 8.75 2.5 4.1 4.15 8.47 3.31 13.42-.1.6-.23 1.2-.39 2.04-1.63-1.49-1.88-3.11-1.9-4.79-.06-3.97-1.81-7.3-3.94-10.5.75 3.04 1.51 6.07 2.26 9.11-.21.07-.41.14-.62.2l-2.65-5.58c-.17.66-.27 1.34-.05 1.9.82 2.16 1.55 4.39 2.67 6.4 2.11 3.79 2.21 7.98 2.94 12.07-2.83-2.71-4.73-5.87-5.35-9.72-.12-.76-.18-1.6-.53-2.26-1.79-3.27-1.46-6.62-.57-10.03.82-3.13 1.11-6.2-.78-9.15-.45-.7-.32-1.81-.34-2.74-.07-2.32-.04-4.65-.15-6.96-.03-.63-.4-1.24-.62-1.86-.14.03-.29.06-.43.08.63 2.67 1.01 5.33-.42 7.96-2.59-2.02-3.54-4.83-4.41-7.71.1 3.65 1.1 7.07 3.53 9.74 3.03 3.33 2.43 6.83 1.29 10.97-1.48-2.37-2.62-4.51-4.06-6.43-2.67-3.56-4.26-7.34-3.51-11.89.13-.79-.15-1.64-.23-2.46-.17.01-.34.01-.51.02-.29 2.44-.58 4.89-.91 7.7-1.89-2.22-3.56-4.19-5.24-6.16-.17.13-.34.26-.5.39 3.93 6.14 9.09 11.52 11.99 18.75-2.45-1.4-4.6-2.61-6.73-3.85-1.44-.84-2.3-2.07-2.97-3.64-1.08-2.54-2.45-4.95-3.78-7.38-.3-.55-.92-.94-1.4-1.4-.13.1-.27.19-.4.29 1.95 3.02 3.73 6.1 4.02 9.8-1.69-.94-3.11-2.07-4.54-3.16-1.44-1.1-2.89-2.18-4.33-3.26l-.33.45c1.91 3.31 5.48 4.92 8.07 7.64-3.96.59-7.48-.75-11.43-2.37.56.69.74 1.07 1.03 1.25 3.46 2.13 7.12 3.54 11.31 3.18 1.05-.09 2.24-.03 3.2.37 3.58 1.49 6.78 3.65 9.21 6.67 1.12 1.39 1.65 3.27 2.45 4.92l-.42.4c-5.12-2.85-9.21-7.34-14.65-9.69 2.36 2.47 5.78 3.83 7.48 6.93l-.54.56c-2.88-1.4-5.76-2.79-8.63-4.19 1.6 2.22 3.54 3.87 6.12 4.8 2.8 1.01 5.64 2.02 8.27 3.4 1.95 1.02 3.44 2.71 3.63 5.44-4.05-1.12-6.97-3.94-10.61-5.88.15.43.17.6.26.72.2.26.41.53.67.73 2.96 2.31 5.72 4.92 9.44 6.11 2.28.73 3.1 1.76 3.75 4.22-5.98-3.08-11.7-6-17.39-8.96-.39-.2-.89-.68-1.11-1.07-2.01-3.54-3.99-7.1-5.97-10.66-.57-1.03-1.11-2.08-1.66-3.12-.13.07-.26.13-.39.2.29 4.01 2.88 7.08 4.47 10.6-5.18-3.62-9.77-7.7-11.75-14.04-.62 3.2 1.69 5.45 2.72 8.61-2.23-.66-4.03-1.19-6.32-1.87.69.7 1.01 1.24 1.49 1.47 1.24.6 2.51 1.24 3.84 1.54 3.38.78 5.58 3.21 8.05 5.39-3.83-1.45-7.63-1.78-11.86-.3 2.53.33 4.82-.46 7.39.77-2.02 1.31-3.63 2.35-5.23 3.39 1.29-.12 2.54-.33 3.53-.96 3.37-2.13 6.41-1.7 9.41.73 3.44 2.77 7.16 5.05 11.53 6.08.06.01.09.16.21.38-2.23-.17-4.41-.15-6.52-.55-2.88-.54-5.57-2.22-8.34-2.78-1.16-.24-2.17-.85-3.1-1.59-.38-.31-.91-.27-1.39-.35-.03.1-.05.19-.08.29 2.9 1.73 5.81 3.46 8.71 5.19-1.45.32-2.82.46-4.16.29-2.86-.38-5.68-.99-8.54-1.39-1.24-.17-2.52-.03-3.79-.03-.01.27-.01.54-.02.81 1.68.07 3.4-.05 5.04.26 1.62.31 3.17 1.05 4.75 1.6v.69c-2.19.97-4.37 1.95-6.56 2.92.5.28.88.26 1.24.17 4.04-.99 8.05-2.07 12.11-2.98 8.69-1.94 16.6.11 23.92 4.89.89.58 1.54 1.52 2.3 2.3-.85.29-1.4.25-1.93.16-3.4-.61-6.9-.57-10.11-2.36-2.59-1.45-5.5-2.33-8.3-3.4-.69-.26-1.48-.27-2.22-.39-.01.1-.02.2-.04.29 2.21 1.23 4.42 2.46 6.64 3.69-.08.25-.06.19-.15.44-3.03-.44-6.06-.93-9.1-1.32-3-.39-5.97-.2-8.9.71 7.17.31 14.13 1.62 20.98 3.53-.05.47-.04.35-.09.82-1.55.07-3.1.24-4.64.18-4.93-.19-9.86-.47-14.79-.68-.74-.03-1.49.11-2.24.18l.03.42 9.11.75c-.93.89-1.94 1.36-2.82 2.01-.84.62-1.56 1.42-2.33 2.14 5.03-2.88 12.68-4.18 17.15-2.72-3.67 4.28-8.99 4.37-14.19 4.98 2.47 1.33 5.07.74 7.84.48-.54 1.27-.99 2.3-1.43 3.32.69-.21 1.15-.58 1.43-1.06 1.95-3.31 5.15-5.2 8.33-6.95 1.66-.91 3.79-1.28 5.72-1.33 2.47-.06 4.99.29 7.42.81 1.25.27 2.66 1.02 3.44 2 2.31 2.9 4.36 6.01 6.47 9.07.48.7.82 1.5 1.15 2.13-3.48-1.56-7-3.03-10.42-4.71-1.23-.6-2.34-1.57-3.3-2.56-.75-.78-1.2-1.85-1.78-2.8-.13.06-.26.11-.4.17.41 1.39.81 2.78 1.26 4.32-3.68-2.32-7.36-4.3-11.84-3.45 3.32 1.41 7.13 1.69 9.94 4.47-5.38 1.23-10.58 2.41-15.77 3.6 0 .06.01.13.01.19h7.31c-.82 1.25-1.61 2.44-2.39 3.63 2.77-2.1 5.35-4.3 8.83-4.87 3.34-.55 6.73-1.42 9.88.26-4.76 2.34-9.5 4.67-14.43 7.09 3.29.6 5.9-1.17 8.79-2.19-.6 1.2-1.12 2.22-1.63 3.25.13.07.26.15.4.22.26-.33.52-.66.79-.99 1.92-2.31 4.27-4.04 7.09-5.08 3.75-1.39 8.73 2 8.84 6.03.08 3.16.17 6.33.05 9.49-.38 9.75-.84 19.5-1.32 29.25-.15 3.15-2.4 4.89-4.88 6.01-.84.38-1.78.13-2.44.44-1.75.81-1.59 3.79.17 4.39.28.1.59.19.86.16 4.38-.46 8.52-1.42 11.01-5.61.42-.7.87-1.39 1.47-2.32.59.8 1.08 1.37 1.46 2.01 1.65 2.77 4.07 4.56 7.19 5.08 2.26.38 4.59 1.55 6.95.13.04-.02.1 0 .14-.03.9-.98.74-4.22 0-5.33-2.27.37-3.78 1.96-5.76.92-2.36-1.24-4.57-2.89-4-6.59 1.78-11.48 1.03-23.14-1.35-34.52-.85-4.07.23-6.72 3.28-8.23 1.88-.93 3.88-1.63 5.83-2.43 3.06-1.25 4.66-.76 6.87 1.76 1.06 1.2 2.43 2.13 3.65 3.18l.23-.32c-.95-1.3-1.89-2.6-3.08-4.21 5.97 1.86 5.97 1.86 6.98 1.41-2.35-1.34-4.74-2.7-7.36-4.19 1.69-1.26 3.21-1.96 3.61-3.68-5.59 3.86-12.59 3.4-18.45 6.35 2.55-3.61 5.36-6.92 9.58-8.45 1.67-.61 3.59-.93 5.35-.78 6.16.54 9.49 4.46 11.23 10.06.09.3.26.57.4.85.15-.04.31-.08.46-.11-.14-1.72-.28-3.45-.42-5.24 2.66-.22 5.3-.03 7.71-1.2-.78-.23-1.55-.18-2.3-.24-1.75-.14-3.67.06-5.22-.6-3.26-1.39-6.33-3.25-9.47-4.91 1.31-1 2.68-2.04 4.05-3.08l-.24-.44c-4.27 1.26-8.26 3.72-13.1 3.13 1.97-2.27 4.09-4.32 6.26-6.31.29-.26.83-.32 1.26-.35 2.98-.17 5.6.66 7.6 2.98 1.01 1.18 1.88 2.48 2.94 3.61 1.8 1.93 4.26 2.67 6.55 3.73.1-.15.19-.3.29-.45-2.05-1.49-4.09-2.98-6.14-4.47 2.61-.11 5.06.09 7.52.31 2.42.22 4.84.35 7.24.71 2.38.36 4.73.94 7.09 1.43l.15-.67c-2.22-.73-4.45-1.47-7.04-2.32 3.08-1.79 6.3-1.02 9.16-1.81l-.06-.61h-9.19c-.08-.25-.07-.23-.15-.48 2.18-1.5 3.57-4.05 6.91-3.95 2.05.07 4.13-.72 6.2-1.12-.02-.17-.05-.35-.07-.52h-6.39c-.05-.16-.04-.15-.09-.31 2.45-1.6 4.9-3.19 7.35-4.79-.14-.2-.23-.38-.32-.55zM110.73 169.29v20.61h5.34v1.91h-14.05v-1.91h6.41v-20.61H95.47l-.76-1.91 13.05-29.01h2.98v29.01h5.34v1.91h-5.35zm-13.58-1.91h11.3v-25.27h-.08l-11.22 25.27z"/><path d="M120.07 120.55a.144.144 0 0 0-.03-.02l.53-.15c.61-.16 1.22-.14 1.83-.01.71.16 1.41.35 2.12.52.52.13 1.04.22 1.57.25.27.01.54.1.8.16.63.16 1.25.31 1.87.48.69.2 1.39.41 2.05.71.34.15.67.32.95.58.37.35.62.78.77 1.26.33 1.05.25 2.1-.02 3.15-.15.58-.36 1.13-.63 1.65-.3.58-.67 1.11-1.15 1.55-.81.75-1.75.94-2.79.56-.37-.14-.71-.33-.97-.62-.26-.3-.49-.63-.69-.97-.32-.55-.59-1.13-.92-1.67-.18-.3-.44-.55-.68-.81-.16-.17-.34-.33-.52-.48-.47-.38-1-.65-1.6-.74-.31-.05-.62-.06-.94-.1-.5-.06-.96-.23-1.4-.48-.47-.26-.85-.62-1.16-1.04-.39-.54-.61-1.16-.64-1.83-.01-.27.09-.52.24-.74.26-.38.59-.68.97-.93.14-.1.29-.19.44-.28zM133.83 133.61c-.49.69-1.57.87-2.31.28-.72-.57-.85-1.61-.28-2.33s1.62-.84 2.33-.28c.73.58.83 1.67.26 2.33zM132.83 128.75c.37-.53 1.22-.64 1.75-.2.54.44.63 1.23.2 1.76-.44.55-1.22.64-1.77.21-.53-.42-.63-1.28-.18-1.77zM134.79 126.58c.4.32.48.92.15 1.3-.34.41-.9.48-1.32.15-.43-.33-.45-.95-.14-1.32.33-.38.9-.45 1.31-.13zM133.58 124.46c.25-.33.79-.35 1.11-.05.28.27.3.75.05 1.04-.32.38-.84.34-1.11.08-.29-.28-.35-.74-.05-1.07zM133.95 123.72c-.22.28-.67.33-.94.11-.27-.22-.33-.67-.11-.93.24-.29.66-.33.93-.11.28.23.34.64.12.93zM143.38 135.61c-.01-.02-.02-.03-.02-.03l.55.03c.63.04 1.2.26 1.73.58.62.37 1.23.78 1.84 1.17.45.29.92.54 1.41.74.25.1.48.26.71.41.54.35 1.09.69 1.62 1.06.6.41 1.18.83 1.72 1.32.28.26.53.52.71.86.24.45.34.94.33 1.45-.03 1.1-.44 2.07-1.03 2.98-.32.5-.7.95-1.12 1.37-.47.46-.99.84-1.59 1.1-1.01.45-1.96.34-2.82-.37-.31-.25-.57-.54-.72-.9-.15-.37-.26-.76-.35-1.14-.13-.62-.2-1.26-.34-1.88-.08-.34-.24-.67-.38-.99-.1-.22-.22-.42-.34-.62-.33-.51-.74-.94-1.28-1.22-.28-.14-.57-.26-.86-.39-.46-.21-.83-.52-1.17-.9-.36-.4-.6-.86-.76-1.36a3.29 3.29 0 0 1-.02-1.94c.08-.26.25-.46.46-.63.36-.28.78-.46 1.22-.57.17-.05.33-.08.5-.13zM152.25 152.39c-.68.49-1.77.32-2.28-.47-.5-.77-.29-1.8.48-2.3.76-.5 1.8-.28 2.3.48.5.78.25 1.85-.5 2.29zM152.85 147.46c.52-.38 1.36-.21 1.73.37.37.58.21 1.37-.37 1.73-.6.38-1.36.21-1.74-.37-.38-.56-.2-1.4.38-1.73z"/><path d="M155.4 146.04c.28.43.16 1.02-.27 1.28a.93.93 0 0 1-1.3-.28c-.3-.45-.12-1.04.29-1.29.44-.27 1-.15 1.28.29zM154.94 143.64c.34-.23.86-.08 1.06.31.18.34.05.8-.29 1-.43.26-.9.05-1.07-.28-.18-.36-.1-.81.3-1.03zM155.52 143.05c-.3.19-.74.1-.93-.2-.19-.29-.1-.74.2-.92.32-.19.73-.1.91.19.2.32.13.73-.18.93zM157.86 165.52v-.04c.16.09.32.19.47.28.54.33.94.79 1.26 1.32.38.62.72 1.26 1.08 1.89.26.46.56.9.91 1.31.18.2.3.46.44.69.32.56.64 1.12.94 1.69.34.64.66 1.29.9 1.97.12.35.23.71.23 1.09 0 .51-.13.99-.38 1.43-.54.96-1.35 1.63-2.29 2.16-.52.29-1.06.52-1.63.69-.63.19-1.27.28-1.92.24-1.1-.07-1.89-.61-2.33-1.64-.16-.36-.25-.74-.22-1.13.03-.4.12-.79.23-1.17.17-.61.41-1.21.57-1.82.09-.34.1-.7.12-1.05.02-.24.01-.47-.01-.71-.05-.6-.22-1.17-.57-1.67-.18-.26-.39-.49-.58-.74-.3-.4-.5-.85-.62-1.34-.13-.52-.14-1.04-.04-1.56.12-.66.41-1.24.88-1.72.19-.2.43-.29.7-.34.45-.08.9-.04 1.34.06.18.02.34.06.52.11zM157.91 184.49c-.83.12-1.71-.54-1.8-1.48-.08-.91.58-1.72 1.49-1.81.91-.09 1.73.59 1.81 1.49.09.93-.64 1.76-1.5 1.8zM160.73 180.41c.64-.1 1.3.45 1.36 1.13.05.69-.45 1.31-1.13 1.36-.7.06-1.3-.44-1.37-1.14-.08-.67.47-1.34 1.14-1.35zM163.65 180.33c.05.51-.33.98-.84 1.01a.928.928 0 0 1-1.02-.85.93.93 0 0 1 .86-1.01c.51-.03.95.33 1 .85zM164.35 178c.41-.05.8.33.8.77 0 .38-.33.73-.72.75-.5.03-.82-.38-.82-.75 0-.4.29-.76.74-.77zM165.14 177.74c-.35.03-.7-.25-.73-.61-.03-.35.26-.7.6-.72.37-.02.69.25.72.6.03.37-.22.7-.59.73z"/><g><path d="M148.92 203.63c.01-.01.03-.02.03-.03l.06.55c.06.63-.06 1.23-.29 1.8-.27.68-.57 1.34-.86 2.01-.21.49-.38.99-.5 1.51-.06.26-.18.51-.29.76-.25.59-.51 1.19-.78 1.77-.31.65-.63 1.3-1.03 1.91-.21.31-.43.61-.73.84-.41.31-.87.49-1.37.56-1.09.15-2.11-.1-3.11-.53a8.04 8.04 0 0 1-1.53-.89c-.53-.39-.99-.84-1.35-1.39-.61-.92-.65-1.87-.1-2.84.2-.34.44-.65.77-.85.34-.21.7-.38 1.07-.53.59-.23 1.21-.4 1.8-.64.32-.13.62-.35.91-.54.2-.13.38-.28.56-.44.45-.4.8-.88.99-1.46.1-.3.16-.61.25-.91.14-.48.38-.91.7-1.3.34-.42.75-.73 1.22-.97.6-.3 1.24-.42 1.91-.33.27.03.5.17.69.36.33.32.58.69.76 1.11.09.15.15.31.22.47zM133.81 215.1c-.6-.59-.6-1.69.1-2.33.68-.62 1.73-.58 2.34.1.62.67.57 1.73-.1 2.35-.69.63-1.79.55-2.34-.12zM138.77 214.9c.46.45.43 1.31-.08 1.76-.52.46-1.31.43-1.77-.08-.47-.53-.43-1.3.08-1.78.49-.47 1.35-.43 1.77.1z"/><path d="M140.58 217.18c-.38.34-.98.32-1.31-.06-.35-.4-.33-.96.06-1.33a.923.923 0 0 1 1.32.08c.35.39.32.96-.07 1.31zM142.87 216.33c.28.3.22.83-.13 1.1-.31.23-.78.18-1.04-.12-.32-.38-.2-.88.1-1.11.33-.23.79-.22 1.07.13zM143.55 216.81a.687.687 0 0 1 .05-.95c.26-.23.72-.22.94.05.24.29.22.71-.04.93-.29.25-.7.24-.95-.03z"/></g><g><path d="M132.87 145.15c-.78.63-1.67 1.03-2.63 1.27-.41.1-.82.17-1.23.21-.32.03-.65 0-.98-.01-.48-.01-.93-.14-1.36-.35-.54-.26-.95-.64-1.23-1.18-.31-.58-.53-1.19-.7-1.82-.28-1.02-.55-2.04-.8-3.06-.06-.25-.04-.52-.08-.77-.05-.34-.12-.69-.2-1.02-.16-.65-.34-1.29-.49-1.94a4.88 4.88 0 0 1-.11-1.57c.05-.52.27-.96.55-1.38.22-.34.5-.63.82-.88.33-.25.69-.35 1.1-.29.74.11 1.38.42 1.93.93.77.72 1.14 1.62 1.19 2.65.02.47.11.93.32 1.36.2.41.45.79.79 1.11.21.19.38.41.6.57.31.23.64.44.98.64.49.28 1 .53 1.49.82.4.23.72.55.95.94.48.82.58 1.67.18 2.55-.17.37-.44.68-.74.95-.11.09-.23.18-.35.27zM136.36 147.74c-.67.57-1.75.46-2.32-.28a1.67 1.67 0 0 1 .29-2.33c.71-.55 1.75-.43 2.32.29.58.74.4 1.83-.29 2.32zM131.51 146.73c.47-.42 1.31-.37 1.76.19.41.51.37 1.31-.21 1.77-.55.43-1.33.34-1.77-.21-.41-.53-.32-1.38.22-1.75zM129.33 148.69a.921.921 0 0 1 .17-1.31c.39-.31.99-.24 1.3.15.32.4.25 1.01-.16 1.33-.4.31-.99.23-1.31-.17zM127.3 147.43c.32-.27.88-.1 1.04.17.26.45.18.81-.19 1.08-.3.23-.82.19-1.08-.22-.22-.33-.12-.8.23-1.03zM125.54 147.74c-.23-.26-.18-.69.1-.93.27-.23.72-.17.94.11.22.28.16.71-.11.93-.27.23-.7.18-.93-.11z"/></g><g><path d="M147.24 163.57c-.78.63-1.67 1.03-2.63 1.27-.41.1-.82.17-1.23.21-.32.03-.65 0-.98-.01-.48-.01-.93-.14-1.36-.35-.54-.26-.95-.64-1.23-1.18-.31-.58-.53-1.19-.7-1.82-.28-1.02-.55-2.04-.8-3.06-.06-.25-.04-.52-.08-.77-.05-.34-.12-.69-.2-1.02-.16-.65-.34-1.29-.49-1.94a4.88 4.88 0 0 1-.11-1.57c.05-.52.27-.96.55-1.38.22-.34.5-.63.82-.88.33-.25.69-.35 1.1-.29.74.11 1.38.42 1.93.93.77.72 1.14 1.62 1.19 2.65.02.47.11.93.32 1.36.2.41.45.79.79 1.11.21.19.38.41.6.57.31.23.64.44.98.64.49.28 1 .53 1.49.82.4.23.72.55.95.94.48.82.58 1.67.18 2.55-.17.37-.44.68-.74.95-.11.09-.23.18-.35.27zM150.73 166.16c-.67.57-1.75.46-2.32-.28a1.67 1.67 0 0 1 .29-2.33c.71-.55 1.75-.43 2.32.29.58.74.4 1.83-.29 2.32zM145.88 165.15c.47-.43 1.31-.37 1.76.19.41.51.37 1.31-.21 1.77-.55.43-1.33.34-1.77-.21-.42-.53-.32-1.38.22-1.75z"/><path d="M143.7 167.11a.921.921 0 0 1 .17-1.31c.39-.31.99-.24 1.3.15.32.4.25 1.01-.16 1.33-.4.31-.99.23-1.31-.17zM141.66 165.85c.32-.27.88-.1 1.04.17.26.45.18.81-.19 1.08-.3.23-.82.19-1.08-.22-.21-.33-.11-.8.23-1.03zM139.91 166.16c-.23-.26-.18-.69.1-.93.27-.23.72-.17.94.11.22.28.16.71-.11.93-.28.23-.7.18-.93-.11z"/></g><g><path d="M144.48 194.34c-.9-.43-1.65-1.06-2.28-1.83-.26-.32-.51-.67-.72-1.02-.17-.28-.28-.59-.41-.89-.19-.44-.28-.9-.27-1.38 0-.6.17-1.13.53-1.62.39-.53.84-.99 1.34-1.42.8-.69 1.6-1.37 2.41-2.05.2-.16.45-.26.66-.41.29-.2.57-.4.84-.62.52-.42 1.02-.86 1.54-1.28.41-.33.87-.59 1.37-.78.49-.18.98-.17 1.48-.1.4.06.79.18 1.15.36.37.19.62.47.74.87.22.72.22 1.43-.01 2.15-.32 1.01-.96 1.73-1.88 2.22-.42.23-.8.5-1.09.87-.28.36-.52.74-.66 1.19-.08.27-.2.52-.26.79-.08.38-.12.77-.15 1.16-.04.57-.05 1.14-.09 1.7-.04.46-.18.89-.44 1.27-.53.78-1.26 1.24-2.22 1.26-.41.01-.8-.1-1.18-.26-.14-.05-.27-.12-.4-.18zM143.65 198.6c-.8-.36-1.17-1.38-.75-2.22.42-.84 1.43-1.14 2.23-.74.81.4 1.14 1.4.74 2.22-.42.85-1.48 1.16-2.22.74zM142.47 193.79c.59.24.9 1.03.59 1.67-.29.59-1.02.9-1.69.58-.63-.31-.88-1.05-.58-1.68.3-.62 1.11-.9 1.68-.57zM139.76 192.67a.91.91 0 0 1 1.25-.41c.45.22.64.79.42 1.24a.96.96 0 0 1-1.27.43c-.44-.23-.62-.8-.4-1.26zM140.01 190.29c.39.17.48.75.3 1.01-.3.43-.65.51-1.06.3a.752.752 0 0 1-.27-1.07c.22-.34.69-.45 1.03-.24zM138.98 188.84c.13-.32.55-.46.88-.31.32.15.46.58.31.9-.16.31-.57.46-.89.3-.32-.15-.46-.56-.3-.89z"/></g><g><path d="M121.35 212.21c-.66-.75-1.1-1.62-1.38-2.58-.12-.4-.21-.81-.26-1.22-.05-.32-.03-.65-.03-.98-.01-.48.1-.94.29-1.38.24-.55.6-.98 1.12-1.28.57-.33 1.17-.58 1.78-.78 1-.32 2.01-.64 3.02-.93.25-.07.51-.06.77-.12.34-.07.68-.15 1.01-.24.64-.18 1.28-.4 1.92-.57.51-.14 1.03-.2 1.57-.18.52.03.97.23 1.4.49.35.21.66.47.92.79.27.32.38.68.34 1.09-.08.75-.36 1.4-.85 1.97-.69.8-1.57 1.21-2.6 1.3-.47.04-.93.15-1.34.38-.4.22-.77.48-1.07.84-.18.21-.39.4-.55.63-.22.32-.41.66-.59 1.01-.26.5-.49 1.03-.75 1.53-.21.4-.52.75-.9.99-.79.51-1.64.65-2.54.28-.38-.15-.7-.41-.98-.7-.11-.12-.2-.23-.3-.34zM118.91 215.8c-.59-.64-.54-1.73.18-2.33.71-.6 1.77-.49 2.34.19.58.69.5 1.73-.19 2.33-.71.62-1.81.48-2.33-.19zM119.72 210.92c.44.45.42 1.3-.11 1.76-.49.43-1.29.43-1.78-.13-.46-.53-.4-1.31.13-1.78.51-.44 1.36-.38 1.76.15zM117.67 208.82c.39-.34.97-.29 1.32.11.32.38.28.98-.1 1.3a.96.96 0 0 1-1.34-.1c-.33-.38-.27-.97.12-1.31zM118.83 206.73c.29.31.14.88-.12 1.05-.44.28-.8.21-1.09-.14a.757.757 0 1 1 1.21-.91zM118.45 204.99c.25-.24.69-.21.93.06.24.26.2.72-.07.95-.27.23-.71.19-.94-.07-.23-.27-.2-.7.08-.94z"/></g><g><path d="M80.85 159.11c-1.97 1.92-4.46 2.67-7.34 1.97-1.46-.35-2.85-.91-3.9-2.04-.9-.97-1.31-2.09-.84-3.4.38-1.06 1.18-1.76 2.07-2.39 1.04-.72 2.26-.96 3.42-1.34 1.59-.52 3.08-1.27 4.18-2.57.66-.78 1.29-1.65 1.37-2.72.04-.53-.1-1.08-.17-1.61-.19-1.42-.24-2.84.2-4.22.57-1.75 1.69-2.98 3.48-3.52 1.07-.32 2.03-.07 2.88.65 1.63 1.38 1.96 3.56 1.19 5.35-.29.68-.74 1.31-1.15 1.93-1.35 2.04-2.36 4.2-2.67 6.67-.15 1.19-.38 2.38-.64 3.55-.29 1.35-1 2.51-2.08 3.69zM65.51 159.25c.49-.57 1.16-.93 1.96-.94.78-.02 1.47.68 1.56 1.51.15 1.5-1.17 3.23-2.65 3.46-.97.15-1.77-.46-1.88-1.44-.1-.88.25-1.79 1.01-2.59zM69.54 161.7c.31-.35.69-.55 1.16-.58.59-.03 1.04.37 1.17 1.02.21 1.04-.51 2.31-1.5 2.64-.72.24-1.4-.2-1.52-.99-.11-.72.16-1.53.69-2.09zM72.88 162.55c.73-.78 1.62-.57 1.91.36.23.73-.11 1.7-.73 2.13-.66.45-1.41.18-1.6-.6-.17-.72.03-1.37.42-1.89zM77.05 164.52c-.47.49-1.07.43-1.44-.15-.38-.6-.25-1.63.27-2.12.52-.49 1.18-.35 1.49.31.28.61.13 1.49-.32 1.96zM78.58 161.35c.44-.45 1.1-.33 1.33.26.2.49.19.97-.05 1.43-.16.32-.41.55-.8.56-.38.01-.58-.26-.73-.53-.27-.47-.12-1.32.25-1.72z"/></g><g><path d="M88.28 185.42c1.17 2.49 1.05 5.09-.55 7.58-.81 1.27-1.79 2.39-3.21 3.02-1.21.53-2.41.55-3.49-.32-.87-.7-1.28-1.69-1.57-2.74-.34-1.22-.16-2.45-.14-3.67.03-1.68-.19-3.33-1.06-4.79-.52-.88-1.14-1.76-2.12-2.19-.49-.21-1.05-.26-1.58-.37-1.41-.28-2.76-.7-3.92-1.58-1.47-1.11-2.26-2.57-2.18-4.44.05-1.11.6-1.94 1.56-2.51 1.84-1.09 4-.68 5.45.63.55.5.99 1.13 1.45 1.72 1.48 1.95 3.2 3.61 5.42 4.71 1.08.54 2.12 1.14 3.15 1.77 1.17.73 2.03 1.78 2.79 3.18zM83.37 199.95c-.38-.65-.49-1.4-.25-2.16.24-.74 1.13-1.17 1.93-.97 1.47.35 2.66 2.17 2.4 3.64-.17.96-1.02 1.52-1.97 1.31-.86-.2-1.6-.83-2.11-1.82zM87.02 196.96c-.23-.41-.3-.83-.16-1.29.17-.56.69-.86 1.35-.77 1.05.14 2.01 1.24 2.01 2.28-.01.76-.65 1.26-1.44 1.11-.73-.13-1.41-.65-1.76-1.33zM88.92 194.08c-.49-.94-.01-1.72.97-1.69.76.02 1.57.66 1.77 1.39.21.77-.29 1.4-1.09 1.32-.74-.08-1.3-.48-1.65-1.02zM92.14 190.8c.31.61.05 1.15-.61 1.31-.69.16-1.62-.3-1.91-.95-.29-.65.06-1.23.79-1.31.65-.07 1.43.36 1.73.95zM89.66 188.3c-.29-.56.05-1.14.68-1.17.52-.03.98.14 1.34.52.25.26.39.57.27.94-.12.36-.43.46-.74.52-.55.09-1.31-.32-1.55-.81z"/></g><g><path d="M70.92 139.44c-.68-.62-1.03-1.52-1.36-2.41-.53-1.42-.73-2.89-.46-4.4.17-.93.5-1.78 1.02-2.6.69-1.08 1.53-1.98 2.6-2.66 1.25-.8 2.67-1.07 4.12-1.24 1.51-.18 3.03-.32 4.51-.68 1.1-.26 2.14-.8 3.17-1.29 1-.48 1.92-1.12 2.92-1.58 1.21-.56 2.46-.53 3.7-.01.84.35 1.5.91 1.99 1.67.57.91.64 1.88.22 2.84-.96 2.23-2.79 3.17-5.11 3.3-1.2.07-2.38-.11-3.54-.4-.91-.23-1.7.06-2.48.46-.83.42-1.52 1.02-2.11 1.74-.92 1.13-1.58 2.39-1.99 3.78-.47 1.59-1.24 2.98-2.6 3.99-1.55 1.14-3.21.9-4.6-.51zM70.81 143.55c-.82.69-1.7 1.07-2.75.95-1-.11-1.56-.88-1.41-1.88.23-1.53 2.2-2.86 3.7-2.52 1.07.24 1.62 1.28 1.16 2.29-.19.41-.47.78-.7 1.16zM68.49 139.33c-.69.65-1.46.92-2.37.7-.73-.18-1.07-.88-.78-1.58.43-1.05 1.91-1.68 2.94-1.25.7.29.94 1.14.5 1.76-.1.14-.21.26-.29.37zM65.35 134.65c.62-.62 1.73-.77 2.39-.32.47.32.58.8.31 1.3-.4.73-1.72 1.12-2.46.73-.73-.4-.83-1.11-.24-1.71zM68.16 131.84c.31.31.34.78.07 1.14-.46.6-1.82.87-2.46.14-.29-.33-.33-.68-.09-1.04.5-.74 1.86-.87 2.48-.24zM69.18 129.35c.32.32.33.72.02 1.04-.49.51-1.56.53-2.06.04-.28-.28-.28-.95.06-1.14.64-.35 1.35-.59 1.98.06z"/></g><g><path d="M59.68 184.93c-.87.29-1.83.14-2.76-.01-1.49-.24-2.88-.79-4.06-1.76-.73-.6-1.31-1.31-1.76-2.17-.6-1.13-.97-2.3-1.03-3.57-.08-1.48.39-2.85.95-4.2.59-1.4 1.21-2.8 1.63-4.25.31-1.08.36-2.25.43-3.39.07-1.1-.03-2.22.06-3.32.11-1.33.75-2.41 1.81-3.23.72-.56 1.53-.86 2.44-.91 1.07-.05 1.95.37 2.58 1.21 1.46 1.93 1.38 3.99.36 6.08-.53 1.08-1.27 2.01-2.09 2.88-.65.68-.79 1.51-.83 2.38-.04.93.13 1.83.47 2.69.53 1.36 1.3 2.55 2.31 3.6 1.15 1.19 1.98 2.55 2.19 4.23.23 1.91-.8 3.23-2.7 3.74zM63.2 187.06c.2 1.05.09 2-.53 2.87-.59.82-1.53.93-2.33.3-1.21-.95-1.41-3.32-.37-4.46.74-.81 1.91-.77 2.57.11.26.36.44.79.66 1.18zM58.38 187c.23.92.08 1.72-.56 2.4-.51.54-1.29.5-1.76-.09-.7-.9-.52-2.49.37-3.18.6-.46 1.46-.26 1.78.43.06.15.12.31.17.44zM52.76 187.42c-.24-.85.18-1.88.89-2.24.51-.25.98-.11 1.28.37.44.71.13 2.05-.58 2.5-.69.45-1.36.18-1.59-.63zM51.7 183.59c.43-.12.84.09 1.02.5.3.69-.14 2.01-1.09 2.2-.43.09-.76-.04-.95-.44-.39-.78.17-2.03 1.02-2.26zM50.04 181.48c.43-.13.79.06.92.5.2.68-.31 1.62-.98 1.81-.38.11-.96-.22-.96-.62 0-.73.14-1.46 1.02-1.69z"/></g><g><path d="M94.97 209.97c-.05.92-.54 1.75-1.03 2.57-.77 1.3-1.8 2.38-3.14 3.12-.83.45-1.7.73-2.66.84-1.27.14-2.5.05-3.7-.36-1.41-.47-2.5-1.41-3.55-2.43-1.09-1.06-2.15-2.16-3.35-3.09-.89-.69-1.96-1.17-2.99-1.66-1-.48-2.07-.79-3.06-1.28-1.19-.59-1.96-1.59-2.33-2.87-.25-.87-.24-1.74.06-2.6.35-1.01 1.06-1.67 2.07-1.95 2.34-.65 4.22.19 5.78 1.91.81.89 1.4 1.92 1.9 3.01.39.85 1.11 1.29 1.91 1.65.85.38 1.75.55 2.68.56 1.45.01 2.85-.27 4.2-.82 1.54-.63 3.11-.9 4.74-.47 1.85.46 2.7 1.91 2.47 3.87zM98.25 207.48c1.05.2 1.9.65 2.47 1.55.54.85.3 1.77-.58 2.28-1.34.77-3.61.08-4.28-1.3-.48-.99-.01-2.07 1.05-2.34.43-.12.89-.13 1.34-.19zM96.41 211.94c.94.13 1.63.56 2.03 1.41.32.68-.01 1.39-.74 1.6-1.09.32-2.51-.44-2.82-1.51-.21-.73.3-1.45 1.06-1.49.17-.02.33-.01.47-.01zM94.73 217.31c-.87-.09-1.68-.86-1.75-1.66-.05-.56.26-.95.82-1.05.82-.15 1.96.64 2.11 1.47.15.81-.35 1.33-1.18 1.24zM90.78 216.88c.05-.44.39-.75.84-.76.75-.02 1.81.87 1.65 1.83-.08.44-.32.69-.76.72-.88.07-1.83-.91-1.73-1.79zM88.2 217.65c.04-.45.35-.71.8-.67.7.06 1.39.88 1.32 1.58-.04.39-.56.81-.93.67-.67-.28-1.3-.68-1.19-1.58z"/></g><g><path d="M185.97 67.73V83h-2.29V69.64H173v19.08h4.58V83h1.91v13.74h-1.91v-6.11H173v28.63h4.58v1.91h-10.69v-1.91h3.82V69.64h-3.82v-1.91h19.08zM208.87 67.73V83h-2.29V69.64H195.9v19.08h4.58V83h1.91v13.74h-1.91v-6.11h-4.58v28.63h10.69V96.74h2.29v24.43H189.8v-1.91h3.82V69.64h-3.82v-1.91h19.07zM0 121.17v-1.91h3.82V69.64H0v-1.91h10.69v1.91H6.11v49.62h9.16V96.74h2.29v24.43H0zM37.02 67.73v1.91h-6.49v49.62h6.49v1.91H21.75v-1.91h6.49V69.64h-6.49v-1.91h15.27z"/></g></symbol><symbol id="price" viewBox="0 0 18.01 18.01"><path d="M9.01.498c-2.29 0-4.36.4-5.89 1.08-.77.34-1.41.75-1.87 1.24S.5 3.878.5 4.508v8.99c0 .62.29 1.2.75 1.69s1.1.9 1.87 1.24c1.53.68 3.6 1.09 5.89 1.09s4.36-.41 5.89-1.09c.77-.34 1.41-.75 1.87-1.24s.75-1.06.75-1.69v-8.99c0-.62-.29-1.2-.75-1.69s-1.1-.9-1.87-1.24C13.37.898 11.3.498 9.01.498z" fill="none" stroke="#000" stroke-miterlimit="10"/><path d="M.51 4.538v.04c.12 1.2 1.21 2.12 2.73 2.77S6.78 8.378 9 8.378s4.24-.38 5.76-1.03 2.6-1.57 2.73-2.77M.51 10.558v.04c.12 1.2 1.21 2.12 2.73 2.77s3.54 1.03 5.76 1.03 4.24-.38 5.76-1.03 2.6-1.57 2.73-2.77" fill="none" stroke="#000" stroke-miterlimit="10"/><path d="M.51 7.658v.04c.12 1.2 1.21 2.12 2.73 2.77s3.54 1.03 5.76 1.03 4.24-.38 5.76-1.03 2.6-1.57 2.73-2.77" fill="none" stroke="#000" stroke-miterlimit="10"/></symbol><symbol id="search" viewBox="0 0 21.19 23.24"><path d="M8.65 17.29a8.64 8.64 0 1 1 5.08-1.65 8.65 8.65 0 0 1-5.08 1.65zm0-15.79a7.15 7.15 0 1 0 7.14 7.15A7.16 7.16 0 0 0 8.65 1.5z"/><path d="M13.254 15.45l1.131-.986 6.801 7.801-1.13.986z"/></symbol><symbol id="subtitles" viewBox="0 0 18 18"><path d="M15.95 0H2.05C.92 0 0 .92 0 2.05v13.91C0 17.08.92 18 2.05 18h13.91c1.13 0 2.05-.92 2.05-2.05V2.05A2.068 2.068 0 0 0 15.95 0zm0 17H2.05C1.47 17 1 16.53 1 15.95v-1.04h9.55c.28 0 .5-.22.5-.5s-.22-.5-.5-.5H1v-2.09h4.14c.28 0 .5-.22.5-.5s-.22-.5-.5-.5H1V2.05C1 1.47 1.47 1 2.05 1h13.91c.57 0 1.04.47 1.04 1.05v8.77H8.23c-.28 0-.5.22-.5.5s.22.5.5.5H17v2.09h-3.36c-.28 0-.5.22-.5.5s.22.5.5.5H17v1.04c0 .58-.47 1.05-1.05 1.05z"/></symbol><symbol id="telegram-header" viewBox="0 0 30 30"><circle cx="15" cy="15" r="15"/><path d="M21.5 10.5l-2 9.3c-.1.3-.2.5-.4.6-.2.1-.4.1-.7-.1l-3-2.2-1.4 1.4-.2.2c-.1.1-.2.1-.4.1l.2-3.1 5.6-5.1c.1-.1.1-.1.1-.2 0 0-.1-.1-.2-.1s-.2 0-.3.1l-6.9 4.4-3-.9c-.3-.1-.5-.2-.5-.4s.2-.4.6-.5l11.6-4.5c.3-.1.5-.1.7.1.3.2.3.5.2.9z" fill="#fff"/></symbol><symbol id="telegram" viewBox="0 0 50 50"><circle cx="25" cy="25" r="25"/><path d="M33.7 19L31 31.4c-.1.4-.3.7-.5.8-.2.1-.6.1-.9-.1l-4-3-2 1.9-.3.3c-.1.1-.3.1-.5.1l.3-4.1 7.5-6.8c.1-.1.1-.1.1-.2s-.1-.1-.2-.1-.2.1-.4.1l-9.2 5.8-4-1.3c-.4-.1-.7-.3-.6-.6 0-.3.3-.5.8-.7l15.5-6c.4-.1.7-.1.9.1.2.5.3.9.2 1.4z" fill="#fff"/></symbol><symbol id="theme" viewBox="0 0 19.5 17.77"><path d="M2.14 7.91l2.38 1.58c0 .02-.02.04-.02.06v4.16c0 1.9 2.42 3.56 5.15 3.56 2.79 0 5.15-1.62 5.15-3.56V9.64l4-2.66c.12-.08.2-.22.2-.38.02-.16-.06-.3-.2-.38L10.03.56c-.02-.02-.04-.02-.06-.02C9.93.52 9.91.5 9.87.5h-.18c-.04 0-.06.02-.08.04-.02 0-.04.02-.06.02L.7 6.22c-.12.08-.2.22-.2.38s.08.3.2.38l1.47.95V15.99" fill="none" stroke="#000" stroke-miterlimit="10"/><path fill="none" stroke="#000" stroke-miterlimit="10" d="M17.73 7.69l-7.96 5.28-5.53-3.66M5.48 5.86l-3.31 2.1"/></symbol><symbol id="youtube-header" viewBox="0 0 30 30"><circle cx="15" cy="15" r="15"/><path d="M22.4 13.6v2.8c-.1 1-.1 1.8-.3 2.3-.1.3-.3.6-.5.8-.2.2-.5.4-.8.5-.5.1-1.6.2-3.3.3h-5c-1.8-.1-2.9-.1-3.3-.3-.3-.1-.6-.3-.8-.5-.2-.2-.4-.5-.5-.8-.1-.5-.2-1.2-.3-2.3V15v-1.4c.1-1 .1-1.8.3-2.2.1-.3.3-.6.5-.8.2-.2.5-.4.8-.5.5-.1 1.6-.2 3.3-.3h5c1.8.1 2.9.1 3.3.3.3.1.6.3.8.5.2.2.4.5.5.8.2.5.3 1.2.3 2.2zm-5 1.4l-3.9-2.2v4.5l3.9-2.3z" fill="#fff"/></symbol><symbol id="youtube" viewBox="0 0 50 50"><circle cx="25" cy="25" r="25"/><path d="M35.6 23v4c-.1 1.5-.2 2.5-.4 3.2-.1.4-.4.8-.7 1.2-.3.3-.7.6-1.2.7-.7.2-2.3.3-4.8.4h-7.2c-2.5-.1-4.1-.2-4.8-.4-.5-.1-.9-.4-1.2-.7-.3-.3-.6-.7-.7-1.2-.2-.7-.3-1.8-.4-3.2v-2-2c.1-1.4.2-2.5.4-3.2.1-.5.4-.9.7-1.2.3-.3.7-.6 1.2-.7.7-.2 2.3-.3 4.8-.4h7.2c2.5.1 4.1.2 4.8.4.5.1.9.4 1.2.7.3.3.6.7.7 1.2.2.7.3 1.8.4 3.2zm-7.2 2l-5.6-3.2v6.4l5.6-3.2z" fill="#fff"/></symbol></svg>